<svg width="421" height="109" viewBox="0 0 421 109" fill="none" xmlns="http://www.w3.org/2000/svg">
<path d="M381.873 26.3565C384.519 26.8211 386.803 27.3797 388.725 28.0324C390.646 28.685 392.377 29.3514 393.916 30.0315C395.495 30.6869 396.964 31.2916 398.323 31.8456C399.683 32.3995 401.123 32.81 402.645 33.0772C405.787 33.6288 409.039 32.8128 412.401 30.6291C413.352 30.0079 414.186 29.3663 414.905 28.7044C415.657 28.0483 416.324 27.4719 416.906 26.9752C417.494 26.448 418.025 26.0367 418.497 25.7413C419.008 25.4213 419.479 25.299 419.909 25.3745C420.636 25.5022 420.925 25.9312 420.775 26.6614C420.681 27.1178 420.183 27.787 419.282 28.669C418.38 29.5511 417.319 30.5468 416.096 31.6562C414.874 32.7656 413.61 33.9148 412.302 35.1039C411.028 36.2988 409.958 37.4191 409.092 38.4649C408.219 39.5411 407.454 40.5101 406.797 41.372C406.173 42.2397 405.565 43.1102 404.974 43.9837C404.389 44.8267 403.795 45.7154 403.191 46.6497C402.594 47.5536 401.916 48.6009 401.157 49.7916C400.541 50.7868 399.935 51.5632 399.341 52.1208C398.746 52.6784 398.135 52.902 397.506 52.7917C396.712 52.6523 396.441 51.9741 396.691 50.7572C396.792 50.2704 397.021 49.5699 397.381 48.6558C397.747 47.7113 398.049 46.6609 398.287 45.5048C399.189 41.1237 398.221 37.5019 395.383 34.6394C392.552 31.7465 388.077 29.7628 381.958 28.6885C380.272 28.3923 378.442 28.2917 376.469 28.3867C374.529 28.4874 372.549 28.8649 370.53 29.519C368.517 30.1428 366.524 31.0853 364.55 32.3466C362.584 33.5775 360.74 35.2082 359.02 37.239C357.339 39.2451 355.808 41.6873 354.427 44.5658C353.085 47.4196 352.017 50.7784 351.221 54.6423C350.752 56.9241 350.469 59.1285 350.374 61.2554C350.279 63.3823 350.344 65.3956 350.57 67.2951C350.796 69.1947 351.155 70.9443 351.648 72.544C352.141 74.1438 352.761 75.5451 353.507 76.7479C354.455 78.3014 355.539 79.6109 356.759 80.6762C357.979 81.7416 359.237 82.6244 360.532 83.3246C361.86 84.0307 363.167 84.5912 364.452 85.006C365.744 85.3904 366.952 85.6813 368.076 85.8787C370.127 86.2388 371.997 86.3938 373.687 86.3436C375.415 86.2689 376.965 86.0681 378.334 85.7411C379.71 85.3837 380.9 84.9306 381.904 84.3818C382.947 83.8085 383.825 83.206 384.538 82.5746C385.12 82.0778 385.654 81.4782 386.142 80.7756C386.629 80.0731 387.053 79.3437 387.415 78.5875C387.815 77.8067 388.147 77.0295 388.409 76.2559C388.677 75.4519 388.883 74.7 389.027 74.0002C389.272 72.8137 389.424 71.6583 389.484 70.534C389.577 69.4155 389.46 68.4019 389.133 67.4934C388.839 66.5906 388.313 65.8204 387.553 65.1826C386.793 64.5448 385.702 64.1011 384.28 63.8514C382.395 63.5204 380.65 63.3401 379.046 63.3106C377.474 63.2868 375.845 63.1269 374.158 62.8307C373.464 62.7088 372.94 62.5065 372.587 62.2238C372.234 61.9412 372.101 61.5869 372.189 61.1609C372.27 60.7654 372.508 60.4446 372.901 60.1984C373.294 59.9522 374.053 59.9279 375.178 60.1253C376.997 60.4447 379.367 60.7505 382.288 61.0428C385.249 61.3104 388.816 61.4638 392.988 61.5029C395.279 61.5269 397.259 61.4805 398.928 61.3637C400.63 61.2528 402.075 61.1439 403.262 61.0371C404.489 60.9057 405.518 60.8184 406.349 60.7752C407.187 60.7016 407.936 60.7229 408.598 60.839C409.491 60.9958 409.884 61.3328 409.777 61.85C409.721 62.1238 409.575 62.3346 409.339 62.4823C409.103 62.63 408.784 62.7632 408.383 62.8818C408.021 62.9759 407.589 63.0735 407.089 63.1748C406.588 63.276 406.061 63.42 405.509 63.6067C404.365 64.0048 403.418 64.6897 402.67 65.6617C401.955 66.6394 401.381 68.1779 400.949 70.2772C400.723 71.3725 400.528 72.5677 400.365 73.863C400.201 75.1582 400.043 76.423 399.892 77.6574C399.78 78.8672 399.683 80.0009 399.603 81.0585C399.555 82.122 399.518 82.9667 399.492 83.5926C399.489 84.4431 399.452 85.2878 399.382 86.1266C399.351 86.9409 399.292 87.561 399.204 87.9869C399.136 88.3216 399.013 88.5838 398.837 88.7735C398.667 88.9329 398.45 88.9893 398.185 88.9428C397.788 88.8731 397.353 88.6549 396.881 88.2882C396.441 87.9273 395.925 87.5214 395.332 87.0706C394.779 86.5952 394.167 86.1567 393.495 85.7551C392.824 85.3535 392.092 85.0831 391.298 84.9437C390.273 84.7637 389.223 84.7843 388.15 85.0056C387.109 85.2327 385.98 85.5547 384.764 85.9715C383.553 86.358 382.214 86.7849 380.747 87.2524C379.28 87.7199 377.591 88.101 375.68 88.3959C373.808 88.6662 371.674 88.7959 369.277 88.7849C366.914 88.7797 364.227 88.5129 361.217 87.9845C356.918 87.2295 353.021 85.8517 349.526 83.8511C346.058 81.8866 343.172 79.4254 340.868 76.4674C338.597 73.5153 337.009 70.1627 336.102 66.4098C335.229 62.6627 335.233 58.6443 336.117 54.3545C336.943 50.3385 338.201 46.808 339.891 43.7631C341.613 40.7239 343.604 38.1261 345.865 35.9695C348.131 33.7825 350.574 31.9889 353.192 30.5888C355.811 29.1886 358.466 28.1101 361.158 27.3533C363.198 26.7658 365.187 26.3427 367.125 26.084C369.096 25.8312 370.976 25.6884 372.765 25.6557C374.553 25.623 376.204 25.6764 377.718 25.8161C379.264 25.9615 380.649 26.1416 381.873 26.3565Z" fill="#E45969"/>
<path d="M286.134 18.2837C286.793 18.5603 287.642 19.1848 288.68 20.1573C289.754 21.107 290.947 22.3054 292.26 23.7526C293.604 25.2031 295.075 26.8373 296.673 28.6552C298.304 30.4764 300.026 32.3594 301.839 34.3041C303.184 35.7546 304.509 37.2294 305.815 38.7286C307.157 40.2051 308.438 41.636 309.658 43.0214C310.879 44.4068 312.027 45.706 313.103 46.9191C314.212 48.1353 315.206 49.2086 316.085 50.1387C316.999 51.0461 317.803 51.7714 318.497 52.3145C319.191 52.8577 319.749 53.1506 320.172 53.193C320.433 53.2191 320.687 53.0209 320.934 52.5984C321.181 52.1759 321.413 51.6071 321.629 50.892C321.877 50.1802 322.104 49.3741 322.308 48.4737C322.513 47.5733 322.703 46.6583 322.878 45.7286C323.053 44.7989 323.209 43.8936 323.346 43.0127C323.482 42.1318 323.589 41.3663 323.665 40.7161C323.769 39.832 323.853 38.8405 323.916 37.7417C324.012 36.6462 324.071 35.5865 324.093 34.5625C324.117 33.5125 324.081 32.5616 323.983 31.7098C323.921 30.8353 323.786 30.164 323.578 29.6957C323.261 29.0324 322.882 28.4682 322.443 28.0032C322.003 27.5381 321.441 27.1397 320.755 26.8078C320.073 26.4499 319.236 26.1423 318.245 25.8851C317.254 25.6278 316.034 25.3607 314.584 25.0838C313.649 24.9111 313.013 24.7157 312.677 24.4978C312.34 24.2798 312.193 23.9888 312.236 23.6247C312.279 23.2607 312.485 23.0446 312.856 22.9765C313.226 22.9084 313.623 22.8955 314.046 22.938C314.372 22.9706 314.857 23.0456 315.502 23.1629C316.182 23.2575 316.975 23.3765 317.881 23.5199C318.789 23.6373 319.763 23.7613 320.802 23.8918C321.873 24.0255 322.962 24.1479 324.069 24.2589C325.86 24.4385 327.646 24.5124 329.429 24.4807C331.211 24.4489 332.881 24.3928 334.439 24.3122C335.999 24.2056 337.394 24.1087 338.623 24.0214C339.852 23.9342 340.792 23.9232 341.443 23.9885C342.42 24.0865 342.872 24.4475 342.798 25.0716C342.749 25.4877 342.503 25.7656 342.058 25.9051C341.646 26.048 341.207 26.1356 340.742 26.1679C340.144 26.2131 339.596 26.2503 339.099 26.2793C338.604 26.2824 338.125 26.3 337.66 26.3324C337.195 26.3647 336.711 26.4213 336.207 26.5024C335.706 26.5574 335.152 26.6466 334.545 26.7699C334.041 26.8509 333.53 26.997 333.011 27.2081C332.525 27.4224 332.044 27.7294 331.569 28.1291C331.097 28.5027 330.643 28.9966 330.209 29.6108C329.81 30.2023 329.461 30.9304 329.161 31.795C328.856 32.7116 328.522 34.0069 328.161 35.6809C327.835 37.3322 327.484 39.1915 327.11 41.2589C326.738 43.3003 326.368 45.4603 326.002 47.739C325.671 49.9949 325.331 52.1842 324.982 54.3069C324.669 56.4068 324.373 58.3637 324.094 60.1775C323.851 61.9686 323.647 63.4217 323.483 64.5366C322.899 68.6617 322.377 71.701 321.917 73.6546C321.489 75.6114 321.047 76.5669 320.591 76.5212C320.331 76.4951 319.857 76.1845 319.169 75.5893C318.517 74.9713 317.739 74.1696 316.833 73.1842C315.931 72.1728 314.93 71.02 313.831 69.7257C312.734 68.4053 311.61 67.0428 310.458 65.6379C309.308 64.207 308.16 62.7632 307.014 61.3063C305.871 59.8234 304.798 58.4397 303.797 57.1552C302.798 55.8447 301.883 54.6609 301.052 53.6041C300.257 52.5244 299.634 51.6594 299.183 51.0091C293.628 43.3477 289.352 37.5512 286.356 33.6196C283.395 29.6653 281.508 27.6473 280.694 27.5657C280.531 27.5494 280.355 27.9264 280.166 28.6968C280.009 29.4704 279.82 30.5171 279.599 31.8369C279.41 33.1599 279.196 34.7039 278.955 36.469C278.747 38.2374 278.526 40.1228 278.29 42.1252C277.987 44.6998 277.674 47.3653 277.35 50.1219C277.061 52.8557 276.773 55.4449 276.486 57.8894C276.198 60.3339 275.943 62.5054 275.72 64.4038C275.532 66.2794 275.388 67.6463 275.287 68.5045C275.106 70.0388 274.938 71.6138 274.781 73.2294C274.656 74.8483 274.575 76.3794 274.537 77.8227C274.528 79.2954 274.586 80.6299 274.708 81.8262C274.828 83.0486 275.061 84.0061 275.408 84.6987C275.887 85.6676 276.432 86.4984 277.042 87.1911C277.652 87.8838 278.306 88.4888 279.003 89.0059C279.732 89.5264 280.503 89.9721 281.316 90.3431C282.129 90.714 282.962 91.0476 283.817 91.3438C284.541 91.6269 285.073 91.8645 285.413 92.0564C285.753 92.2483 285.906 92.4874 285.872 92.7734C285.817 93.2415 285.285 93.4249 284.276 93.3237C283.69 93.265 282.983 93.1151 282.155 92.8742C281.327 92.6333 280.422 92.3452 279.44 92.0099C278.488 91.7039 277.474 91.3654 276.397 90.9943C275.321 90.6233 274.242 90.2782 273.159 89.9592C271.95 89.601 270.734 89.2949 269.512 89.0408C268.29 88.7868 267.093 88.6009 265.921 88.4834C265.14 88.405 264.325 88.3364 263.475 88.2775C262.655 88.2479 261.885 88.2102 261.166 88.1644C260.444 88.1446 259.821 88.1215 259.297 88.0953C258.77 88.0951 258.408 88.0852 258.213 88.0656C257.595 88.0035 256.981 87.9025 256.371 87.7624C255.794 87.6257 255.532 87.3362 255.584 86.8941C255.621 86.5821 255.857 86.3952 256.292 86.3337C256.728 86.2721 257.304 86.2772 258.02 86.349C258.964 86.4437 260.034 86.4458 261.231 86.3553C262.457 86.2941 263.605 86.054 264.675 85.6351C266.128 85.0441 267.285 84.1734 268.145 83.0229C269.001 81.8985 269.67 80.4132 270.151 78.5669C270.385 77.6958 270.591 76.7824 270.77 75.8267C270.977 74.9003 271.165 73.8666 271.332 72.7256C271.535 71.5619 271.739 70.2406 271.946 68.7615C272.153 67.2825 272.371 65.5677 272.601 63.6173C272.698 62.7852 272.786 61.8993 272.864 60.9599C272.944 59.9944 273.046 58.9916 273.168 57.9514C273.251 57.2492 273.349 56.2724 273.463 55.0208C273.613 53.7466 273.783 52.3033 273.972 50.6909C274.162 49.0786 274.349 47.3476 274.534 45.498C274.721 43.6223 274.893 41.745 275.048 39.8661C275.203 37.9872 275.337 36.1456 275.45 34.3415C275.567 32.5113 275.632 30.8339 275.647 29.3092C275.665 27.7586 275.625 26.4127 275.529 25.2716C275.432 24.1305 275.252 23.2836 274.988 22.7309C274.697 22.1228 274.26 21.6318 273.679 21.2577C273.097 20.8836 272.392 20.5761 271.564 20.3351C270.736 20.0942 269.786 19.9069 268.715 19.7731C267.679 19.6166 266.56 19.465 265.359 19.3182C264.577 19.2398 263.919 19.0949 263.384 18.8833C262.885 18.6491 262.667 18.2589 262.731 17.7127C262.78 17.2967 262.994 17.0156 263.374 16.8694C263.757 16.6973 264.225 16.639 264.778 16.6945L268.978 17.1157C270.964 17.3148 273.48 17.4882 276.526 17.6358C277.935 17.6982 279.332 17.7199 280.718 17.701C282.136 17.6854 283.35 17.7282 284.359 17.8294C284.717 17.8653 285.056 17.9256 285.375 18.0103C285.698 18.0689 285.95 18.1601 286.134 18.2837Z" fill="#E45969"/>
<path d="M261.433 0C262.711 0 263.706 0.0659427 264.42 0.197828C265.172 0.296742 265.736 0.428628 266.111 0.593484C266.525 0.758341 266.788 0.956169 266.901 1.18697C267.013 1.3848 267.07 1.59911 267.07 1.82991C267.07 2.39042 266.656 2.83554 265.83 3.16525C265.04 3.49496 263.725 3.65982 261.884 3.65982C260.005 3.65982 258.258 3.70928 256.642 3.80819C255.026 3.90711 253.504 4.13791 252.076 4.50059C250.798 4.79733 249.633 5.24245 248.581 5.83593C247.529 6.39644 246.571 7.15479 245.706 8.11095C244.88 9.06712 244.147 10.2376 243.508 11.6224C242.869 13.0072 242.324 14.6723 241.873 16.6176C241.385 18.7277 240.877 21.4479 240.351 24.778C239.863 28.1081 239.356 31.8009 238.829 35.8564C238.341 39.8789 237.871 44.1322 237.42 48.6163C236.969 53.1004 236.575 57.5515 236.236 61.9697C235.898 66.3878 235.616 70.6411 235.391 74.7296C235.203 78.818 235.109 82.4779 235.109 85.7091C235.109 87.5554 235.278 89.0062 235.616 90.0613C235.992 91.1493 236.443 91.9736 236.969 92.5341C237.533 93.0946 238.115 93.4738 238.717 93.6716C239.318 93.8695 239.844 94.0178 240.295 94.1167C241.347 94.3805 242.55 94.5289 243.903 94.5619C245.255 94.5948 246.401 94.6113 247.341 94.6113C249.182 94.6113 250.103 95.0564 250.103 95.9467C250.103 96.3423 249.878 96.705 249.427 97.0347C249.013 97.3974 248.074 97.5787 246.608 97.5787C245.857 97.5787 244.992 97.5623 244.015 97.5293C243.076 97.4963 242.024 97.4798 240.859 97.4798C239.243 97.4798 237.42 97.5293 235.391 97.6282C233.362 97.7601 231.107 97.9744 228.627 98.2711C226.184 98.5679 223.779 99.046 221.412 99.7054C219.044 100.365 216.827 101.024 214.76 101.684C212.693 102.343 210.852 102.92 209.236 103.415C207.62 103.909 206.343 104.157 205.403 104.157C204.426 104.157 203.938 103.777 203.938 103.019C203.938 102.458 204.389 102.03 205.291 101.733C205.591 101.634 206.362 101.387 207.602 100.991C208.842 100.629 210.232 100.2 211.773 99.7054C213.314 99.2108 214.817 98.6998 216.282 98.1722C217.748 97.6777 218.856 97.2325 219.608 96.8369C220.735 96.2764 221.656 95.6499 222.37 94.9575C223.122 94.2651 223.723 93.4903 224.174 92.633C224.625 91.8088 224.944 90.902 225.132 89.9129C225.357 88.9238 225.527 87.8522 225.639 86.6982C225.714 85.3793 225.79 83.5 225.865 81.0601C225.94 78.6202 225.996 75.8176 226.034 72.6524C226.109 69.4871 226.147 66.0581 226.147 62.3653C226.184 58.6725 226.203 54.9138 226.203 51.0891C226.203 47.9898 226.184 44.9235 226.147 41.8901C226.147 38.8238 226.128 35.9223 226.09 33.1857C226.09 30.4161 226.053 27.8773 225.978 25.5693C225.94 23.2613 225.902 21.2665 225.865 19.585C225.79 17.1121 225.583 15.1009 225.245 13.5512C224.944 11.9686 224.55 10.6992 224.061 9.74304C223.572 8.7539 223.009 7.99556 222.37 7.46801C221.769 6.94047 221.111 6.47887 220.397 6.08322C219.27 5.42379 217.748 4.9457 215.831 4.64896C213.952 4.31925 212.055 4.15439 210.138 4.15439C209.274 4.15439 208.654 4.02251 208.278 3.75874C207.902 3.46199 207.714 3.13228 207.714 2.76959C207.714 2.57177 207.752 2.39042 207.827 2.22557C207.902 2.02774 208.053 1.8464 208.278 1.68154C208.503 1.51668 208.86 1.3848 209.349 1.28588C209.8 1.18697 210.42 1.13751 211.209 1.13751C212.224 1.13751 213.539 1.18697 215.155 1.28588C216.808 1.3848 218.612 1.48371 220.566 1.58263C222.52 1.68154 224.587 1.78045 226.767 1.87937C228.946 1.97828 231.107 2.02774 233.249 2.02774C235.541 2.02774 237.909 1.92882 240.351 1.731C242.794 1.5002 245.237 1.2694 247.679 1.0386C250.122 0.774827 252.508 0.544027 254.838 0.346199C257.168 0.1154 259.366 0 261.433 0Z" fill="#E45969"/>
<path d="M92.695 13.3366C94.7224 12.9017 96.8885 12.6758 99.1933 12.6589C101.523 12.6047 103.756 12.9852 105.891 13.8004C108.018 14.5854 109.936 15.9085 111.645 17.7699C113.354 19.6313 114.626 22.2228 115.461 25.5446C116.236 28.6248 116.523 31.4117 116.323 33.9053C116.149 36.3617 115.636 38.5722 114.786 40.5368C113.929 42.4712 112.803 44.1608 111.408 45.6057C110.047 47.0435 108.567 48.2839 106.968 49.327C105.362 50.3399 103.71 51.1716 102.012 51.8222C100.307 52.4425 98.7025 52.914 97.1983 53.2366C95.0401 53.6995 93.1698 54.0052 91.5873 54.1536C89.9972 54.2719 88.6448 54.3073 87.53 54.26C87.9501 55.7931 88.3689 57.3901 88.7867 59.051C89.2295 60.6746 89.637 62.2263 90.0091 63.706C90.4064 65.1485 90.7493 66.4435 91.0379 67.5911C91.3516 68.7014 91.5692 69.4981 91.6907 69.9813C91.9892 71.0312 92.3888 72.3459 92.8894 73.9254C93.3825 75.4746 93.9397 77.0738 94.5612 78.7228C95.2154 80.3648 95.9111 81.966 96.6482 83.5266C97.4105 85.0499 98.1899 86.2991 98.9865 87.274C99.831 88.3023 100.797 89.1294 101.885 89.7554C102.973 90.3814 104.092 90.8574 105.243 91.1836C106.426 91.5027 107.615 91.7091 108.81 91.8028C110.006 91.8965 111.149 91.9218 112.241 91.8785C112.787 91.8569 113.33 91.8202 113.868 91.7684C114.447 91.7397 114.96 91.7251 115.408 91.7245C115.863 91.7541 116.241 91.8164 116.54 91.9113C116.88 92.0293 117.084 92.2243 117.153 92.496C117.244 92.8584 117.153 93.1804 116.879 93.4619C116.605 93.7434 115.961 93.9929 114.947 94.2103C113.901 94.4347 112.539 94.5678 110.86 94.6095C109.19 94.6814 107.312 94.7501 105.226 94.8155C103.18 94.9042 101.008 95.0359 98.708 95.2109C96.416 95.416 94.1583 95.7571 91.9346 96.234C89.5148 96.753 87.2562 97.3648 85.1588 98.0693C83.094 98.7667 81.2456 99.4337 79.6135 100.07C78.0218 100.73 76.6677 101.307 75.5512 101.801C74.4348 102.295 73.6313 102.595 73.1408 102.7C73.01 102.728 72.8427 102.748 72.6389 102.76C72.4754 102.795 72.288 102.803 72.0766 102.785C71.8979 102.759 71.728 102.7 71.5668 102.608C71.4383 102.508 71.3437 102.337 71.2829 102.096C71.1994 101.764 71.3436 101.446 71.7155 101.144C72.1202 100.834 72.6556 100.496 73.3218 100.131C74.0208 99.758 74.7901 99.3225 75.6297 98.8241C76.5097 98.3489 77.3668 97.7831 78.2012 97.1268C79.8297 95.7909 80.9282 94.2662 81.4968 92.5529C82.0653 90.8396 82.3279 88.9374 82.2844 86.8461C82.2528 85.8981 82.1186 84.5424 81.8819 82.779C81.6779 81.0086 81.3968 79.0002 81.0386 76.7536C80.6728 74.4769 80.2526 72.0527 79.7782 69.481C79.3288 66.872 78.8506 64.2852 78.3434 61.7205C77.8286 59.1257 77.3078 56.6435 76.7808 54.274C76.2789 51.8673 75.7925 49.7278 75.3216 47.8555C74.3951 44.1714 73.4642 40.9496 72.529 38.1903C71.5937 35.431 70.5526 33.3468 69.4056 31.9379C68.5056 30.826 67.4576 30.0164 66.2616 29.509C65.0908 28.9645 63.851 28.6257 62.5424 28.4926C61.2664 28.3525 59.9593 28.3624 58.6209 28.5221C57.2749 28.6517 55.973 28.8195 54.7152 29.0257C53.0726 29.3461 51.9506 29.4754 51.3491 29.4135C50.7401 29.3213 50.3634 28.9883 50.2191 28.4146C49.9988 27.5388 50.7225 26.9221 52.3903 26.5644C53.1097 26.4101 54.2656 26.2099 55.8579 25.9639C57.4503 25.7178 59.342 25.3598 61.5329 24.8899C63.1352 24.5462 64.8733 24.1257 66.7471 23.6283C68.6209 23.1309 70.5411 22.544 72.5078 21.8676C74.1626 21.3217 75.6099 20.7726 76.8495 20.2202C78.1143 19.6307 79.2684 19.0808 80.3118 18.5706C81.3804 18.0231 82.371 17.5083 83.2836 17.0261C84.1887 16.5137 85.1177 16.028 86.0706 15.569C87.0236 15.11 88.0244 14.7044 89.0732 14.3521C90.147 13.9627 91.3543 13.6241 92.695 13.3366ZM82.0922 30.1716C82.2804 31.468 82.5506 32.9536 82.9029 34.6285C83.2476 36.2732 83.6227 38.0388 84.0282 39.9251C84.4664 41.8044 84.9235 43.7592 85.3997 45.7894C85.9085 47.8127 86.4136 49.8209 86.9149 51.8139C88.0372 51.8915 89.2714 51.8655 90.6174 51.7359C91.9557 51.5762 93.5405 51.2999 95.3717 50.9071C97.8242 50.3811 99.764 49.3922 101.191 47.9403C102.651 46.4815 103.68 44.749 104.278 42.7429C104.901 40.6995 105.157 38.4964 105.045 36.1333C104.959 33.7331 104.619 31.3552 104.027 28.9998C103.541 27.0671 102.874 25.2369 102.026 23.5092C101.21 21.7744 100.206 20.3188 99.0145 19.1422C97.8149 17.9355 96.3932 17.0787 94.7494 16.572C93.0979 16.035 91.2258 15.991 89.133 16.4399C87.498 16.7906 86.1602 17.3639 85.1197 18.16C84.0792 18.956 83.2957 19.9516 82.7691 21.1467C82.2349 22.3115 81.9212 23.6678 81.8279 25.2155C81.7598 26.726 81.8479 28.378 82.0922 30.1716Z" fill="#E45969"/>
<path d="M30.067 38.1913C31.677 38.0685 33.1042 38.0836 34.3486 38.2367C35.593 38.3897 36.6917 38.5911 37.6446 38.8407C38.6251 39.0635 39.4692 39.2718 40.1769 39.4658C40.9145 39.6575 41.5516 39.7329 42.0883 39.692C42.4759 39.6624 42.7917 39.5019 43.0358 39.2106C43.2799 38.9192 43.4887 38.5686 43.6622 38.1586C43.8356 37.7486 43.976 37.304 44.0832 36.8247C44.1904 36.3454 44.301 35.9031 44.4148 35.4977C44.543 34.9176 44.6939 34.4226 44.8673 34.0127C45.0684 33.5758 45.3776 33.3414 45.795 33.3096C46.2721 33.2732 46.5425 33.6121 46.6064 34.3263C46.6416 34.7204 46.6217 35.1682 46.5464 35.6698C46.501 36.1692 46.4197 36.7705 46.3025 37.4737C46.2129 38.15 46.1045 38.9517 45.9773 39.8789C45.8777 40.7791 45.7913 41.8271 45.7181 43.0228C45.6096 44.494 45.5612 45.7995 45.5731 46.9392C45.6126 48.0519 45.6366 48.9923 45.6453 49.7603C45.6517 50.5037 45.6129 51.0769 45.5289 51.4801C45.4747 51.8809 45.3135 52.0916 45.0451 52.1121C44.8364 52.128 44.6647 52.0543 44.5301 51.891C44.3932 51.7031 44.2679 51.4771 44.1542 51.213C44.0406 50.9489 43.9418 50.6837 43.858 50.4173C43.7741 50.151 43.7084 49.9204 43.661 49.7257C43.4547 49.0968 43.1981 48.4097 42.8913 47.6644C42.6121 46.8922 42.2435 46.1269 41.7855 45.3684C41.3252 44.5853 40.7777 43.8336 40.1429 43.1133C39.5082 42.3931 38.7321 41.7704 37.8146 41.2453C36.9269 40.7179 35.8863 40.3262 34.6927 40.0701C33.4969 39.7893 32.1238 39.7081 30.5735 39.8263C27.7709 40.0401 25.6561 40.8957 24.2291 42.393C22.8021 43.8904 22.2086 45.9813 22.4487 48.6657C22.5698 50.0202 23.0807 51.3697 23.9814 52.7144C24.9098 54.0321 26.081 55.3809 27.4952 56.7608C28.9392 58.1383 30.5504 59.5404 32.329 60.9668C34.1075 62.3933 35.9352 63.8656 37.812 65.3837C39.6888 66.9019 41.5253 68.4727 43.3215 70.0961C45.1177 71.7196 46.7404 73.4183 48.1899 75.1922C49.6691 76.9638 50.8866 78.8298 51.8424 80.7901C52.8258 82.7235 53.4133 84.7615 53.6049 86.9041C53.8692 89.8594 53.5179 92.4773 52.5512 94.7578C51.5822 97.0137 50.1778 98.9309 48.3378 100.509C46.4999 102.112 44.3149 103.358 41.7827 104.245C39.2528 105.157 36.5716 105.721 33.7392 105.937C31.5329 106.105 29.5752 106.032 27.8659 105.716C26.1887 105.422 24.6561 105.068 23.2682 104.653C21.9123 104.26 20.663 103.885 19.5202 103.525C18.4094 103.189 17.3174 103.061 16.2441 103.143C15.4093 103.207 14.6528 103.475 13.9747 103.948C13.3264 104.419 12.7261 104.924 12.1739 105.462C11.6537 106.022 11.1887 106.529 10.7789 106.982C10.3989 107.432 10.0748 107.668 9.80647 107.688C9.56796 107.706 9.41228 107.644 9.33943 107.501C9.26879 107.382 9.22466 107.224 9.20704 107.027C9.18942 106.83 9.20441 106.494 9.25201 106.019C9.30181 105.569 9.34279 105.021 9.37497 104.374C9.43697 103.724 9.47635 102.99 9.49311 102.17C9.50987 101.351 9.47641 100.473 9.39271 99.5372C9.24294 97.8625 8.89608 96.1657 8.35212 94.4467C7.80595 92.7031 7.22498 91.0737 6.60919 89.5586C5.9934 88.0435 5.43886 86.7096 4.94555 85.5571C4.45224 84.4045 4.18247 83.5697 4.13621 83.0525C4.11639 82.8308 4.1573 82.617 4.25894 82.4108C4.33076 82.207 4.53065 82.0926 4.85861 82.0676C5.30583 82.0335 5.74746 82.2725 6.1835 82.7848C6.61734 83.2724 7.08151 83.9312 7.576 84.7614C7.89718 85.3319 8.30502 86.0323 8.79951 86.8624C9.32382 87.6903 9.89945 88.5886 10.5264 89.5574C11.1512 90.5015 11.8251 91.4915 12.5481 92.5274C13.3009 93.561 14.0962 94.5665 14.9341 95.544C16.3791 97.2687 17.8562 98.6809 19.3654 99.7808C20.8746 100.881 22.3916 101.732 23.9164 102.335C25.4732 102.96 27.0251 103.362 28.572 103.542C30.1212 103.746 31.6561 103.79 33.1766 103.674C34.9953 103.535 36.5352 103.133 37.7964 102.466C39.0874 101.798 40.1244 100.975 40.9076 99.9974C41.6907 99.0203 42.2254 97.9505 42.5117 96.7881C42.8278 95.6234 42.9352 94.4746 42.8339 93.3417C42.6334 91.1006 42.0735 89.0357 41.1542 87.147C40.2624 85.2314 39.141 83.4325 37.7898 81.7503C36.4663 80.0412 34.9705 78.4196 33.3024 76.8855C31.6343 75.3515 29.9247 73.8578 28.1738 72.4044C26.4527 70.9488 24.7625 69.5032 23.1032 68.0676C21.4439 66.6321 19.9464 65.1594 18.6106 63.6496C17.3025 62.1129 16.1998 60.5233 15.3024 58.8809C14.4327 57.2115 13.9131 55.4287 13.7435 53.5324C13.5783 51.6853 13.7162 50.0383 14.1571 48.5914C14.598 47.1444 15.2344 45.8685 16.0661 44.7637C16.9277 43.6566 17.9239 42.7127 19.0548 41.9322C20.2133 41.1248 21.4149 40.4629 22.6595 39.9464C23.9339 39.4277 25.2044 39.0333 26.471 38.7631C27.7652 38.466 28.9639 38.2754 30.067 38.1913Z" fill="#E45969"/>
<path d="M165.755 16.7499C167.392 16.5399 169.098 16.5061 170.87 16.6493C174.883 16.9735 178.126 17.7804 180.598 19.0692C183.074 20.3272 184.986 21.8513 186.333 23.6405C187.682 25.3987 188.546 27.3051 188.925 29.3583C189.339 31.3832 189.459 33.3228 189.284 35.1757C189.111 36.9976 188.685 38.8305 188.005 40.6737C187.328 42.4861 186.41 44.1707 185.252 45.7264C184.127 47.2848 182.782 48.6699 181.219 49.8817C179.691 51.0652 177.976 51.9221 176.072 52.453L173.945 53.0282C175.154 57.7004 176.742 61.7502 178.709 65.1766C180.676 68.6029 182.864 71.4724 185.273 73.7831C187.716 76.0963 190.313 77.8621 193.061 79.08C195.844 80.3004 198.656 81.0251 201.499 81.2548C203.137 81.3871 204.645 81.3069 206.02 81.0135C207.429 80.7228 208.656 80.2307 209.699 79.537C210.778 78.8151 211.639 77.9199 212.279 76.8514C212.922 75.7521 213.313 74.4606 213.454 72.9784C213.559 71.8668 213.58 70.9344 213.516 70.1825C213.453 69.4307 213.359 68.8155 213.236 68.3387C213.149 67.8342 213.052 67.437 212.945 67.1483C212.838 66.8599 212.794 66.6075 212.814 66.3915C212.829 66.2371 212.874 66.1154 212.95 66.0282C213.029 65.9104 213.169 65.8597 213.369 65.8759C213.67 65.9005 214.015 66.1621 214.406 66.66C214.8 67.1275 215.147 67.7467 215.444 68.5175C215.775 69.291 216.029 70.1676 216.206 71.1464C216.386 72.0943 216.428 73.0626 216.335 74.0507C216.112 76.3977 215.539 78.5461 214.613 80.494C213.687 82.4419 212.384 84.0949 210.706 85.453C209.061 86.8138 207.044 87.8182 204.658 88.4657C202.272 89.1131 199.523 89.3116 196.413 89.0604C192.066 88.7093 188.226 87.7921 184.895 86.3094C181.596 84.8604 178.713 83.0863 176.25 80.9891C173.787 78.892 171.711 76.6085 170.024 74.1385C168.34 71.6375 166.939 69.1741 165.821 66.7499C164.706 64.2948 163.845 62 163.238 59.8661C162.632 57.7322 162.174 55.9831 161.865 54.62C160.884 54.6652 159.955 54.6841 159.08 54.6757C158.208 54.6363 157.386 54.5854 156.617 54.5233C155.681 54.4477 154.88 54.367 154.214 54.2821C153.581 54.1999 153.083 54.1128 152.721 54.0214C152.598 56.034 152.48 58.1721 152.367 60.4344C152.29 62.6688 152.254 64.8296 152.259 66.9149C152.263 69.0001 152.337 70.889 152.48 72.5809C152.626 74.2419 152.859 75.5217 153.179 76.4188C153.743 77.9267 154.538 79.1425 155.562 80.0653C156.59 80.9573 157.617 81.6788 158.643 82.2284C159.667 82.8088 160.55 83.2692 161.293 83.6093C162.035 83.9492 162.392 84.2741 162.363 84.5829C162.325 84.9838 161.82 85.1455 160.851 85.0673C159.781 84.9808 158.591 84.7292 157.283 84.3124C155.972 83.9264 154.546 83.4997 153.007 83.0331C151.501 82.5692 149.892 82.1122 148.182 81.663C146.47 81.2446 144.677 80.9597 142.805 80.8085C140.999 80.6626 139.136 80.5743 137.219 80.5438C135.298 80.5443 133.552 80.4813 131.98 80.3544C129.807 80.1788 128.264 79.9139 127.354 79.5604C126.444 79.2069 126.02 78.7059 126.081 78.0575C126.119 77.656 126.284 77.3425 126.575 77.1171C126.866 76.8918 127.396 76.8098 128.165 76.8719C129.034 76.9422 129.802 77.0195 130.468 77.1044C131.167 77.1919 131.868 77.2645 132.57 77.3212C134.209 77.4535 135.624 77.4584 136.815 77.3368C138.039 77.2178 139.05 76.8643 139.847 76.2753C140.647 75.6553 141.272 74.7563 141.721 73.579C142.202 72.4044 142.537 70.8286 142.724 68.8524C142.8 68.0495 142.892 66.7183 143.001 64.8602C143.109 63.0019 143.196 60.8456 143.26 58.3925C143.323 55.9393 143.354 53.3116 143.349 50.5106C143.379 47.7123 143.351 44.9709 143.268 42.288C143.188 39.5743 143.024 37.0403 142.775 34.6864C142.526 32.3325 142.19 30.3754 141.764 28.8163C141.306 27.2546 140.699 26.0073 139.945 25.0751C139.191 24.1429 138.3 23.4011 137.274 22.8514C136.282 22.3046 135.173 21.9036 133.951 21.6493C132.762 21.3977 131.504 21.1562 130.179 20.9247C129.616 20.817 129.174 20.6724 128.854 20.4911C128.538 20.2788 128.399 19.9564 128.44 19.5243C128.475 19.1537 128.639 18.8552 128.93 18.6298C129.223 18.3735 129.792 18.248 130.634 18.2538C131.576 18.2677 132.415 18.3047 133.15 18.3641C133.886 18.4235 134.622 18.4834 135.357 18.5428C136.36 18.6239 137.331 18.7016 138.267 18.7772C139.204 18.8528 140.192 18.9177 141.231 18.9706C142.307 18.9952 143.485 19.0123 144.764 19.0223C146.08 19.0042 147.6 18.9712 149.323 18.9237C151.551 18.8858 153.589 18.7239 155.435 18.4374C157.318 18.1227 159.1 17.8145 160.779 17.5145C162.495 17.1864 164.154 16.9317 165.755 16.7499ZM164.566 19.5048C164.133 19.3237 163.849 19.3345 163.459 19.5448C162.732 19.9364 162.164 20.6815 162.061 21.3778C162 21.7954 162.101 22.2522 162.348 22.6844C162.519 22.9809 163.043 23.4795 163.33 23.6171C163.505 23.7011 163.516 23.7297 163.609 24.4237C163.791 25.7777 163.997 26.636 164.538 28.2997C165.18 30.273 165.203 30.375 165.27 31.5702C165.34 32.8157 165.276 33.1897 164.819 34.1815C164.54 34.787 164.545 34.7879 164.357 34.0829C164.219 33.5625 163.877 32.8918 163.482 32.3671C163.215 32.0112 163.175 31.9251 163.221 31.7948C163.319 31.514 163.238 30.5037 163.089 30.1503C162.603 29.003 161.359 28.1093 159.796 27.7841C159.298 27.6805 159.151 27.6729 158.32 27.7118C157.048 27.7714 156.947 27.8346 156.767 28.6776C156.418 30.322 157.727 31.9574 159.83 32.5038C160.383 32.6475 161.184 32.7344 161.713 32.7089L162.072 32.6923L162.307 33.0389C163.243 34.4202 163.396 36.1508 162.713 37.5946C162.584 37.8666 162.433 38.2351 162.378 38.413L162.278 38.7362L161.768 38.1366C160.81 37.0117 159.898 36.1352 158.625 35.1171L157.91 34.5458L157.914 34.037C157.926 32.5394 156.776 31.2199 154.978 30.6688C154.078 30.3928 153.573 30.3413 152.533 30.4188C151.588 30.4893 151.316 30.5691 151.16 30.8221C150.895 31.2526 150.939 32.4562 151.242 33.0634C151.727 34.0338 152.7 34.7969 153.93 35.1718C154.749 35.4214 155.25 35.4812 156.174 35.4413C156.766 35.4157 156.997 35.4246 157.093 35.4764C157.306 35.5922 158.562 36.6666 159.146 37.2333C160.649 38.6912 162.222 40.7379 162.597 41.7235C162.756 42.1393 162.858 42.3683 163.584 43.9364C163.786 44.3741 163.987 44.8993 164.03 45.1034C164.073 45.3075 164.155 45.5217 164.211 45.579C164.267 45.6364 164.378 45.9196 164.457 46.2089C164.536 46.498 164.619 46.7853 164.64 46.8475C164.676 46.9512 164.642 46.9453 164.206 46.7714C163.604 46.5312 162.983 46.3513 161.894 46.1014C159.806 45.6218 158.846 45.1695 158.275 44.3954C157.985 44.0021 157.958 43.8176 158.156 43.6024C158.384 43.3551 158.854 42.5022 158.971 42.1249C159.098 41.7113 159.097 40.6101 158.97 40.205C158.513 38.7541 157.242 37.6088 155.457 37.038C154.897 36.8589 153.918 36.6978 153.508 36.7177C153.142 36.7353 152.995 36.8229 152.67 37.2157C151.612 38.4935 151.463 40.1885 152.293 41.5067C152.766 42.2584 153.374 42.8093 154.237 43.2675C154.812 43.5723 155.719 43.8871 156.252 43.9667C156.56 44.0126 156.569 44.0203 156.665 44.2841C156.719 44.4326 156.915 44.7552 157.1 45.0009C157.361 45.3467 157.558 45.5286 157.976 45.8085C158.815 46.37 159.662 46.6861 161.544 47.1385C164.14 47.7628 164.776 48.1442 164.979 49.201C165.064 49.6437 165.236 49.9147 165.684 49.9305C166.208 49.9488 166.059 48.9752 166.002 48.745C165.921 48.4175 165.725 46.7296 165.263 45.4491C165.077 44.9301 165.333 44.3393 165.329 43.6737C165.316 41.4926 166.164 40.4289 169.346 38.6307L170.191 38.1532L170.457 38.2098C171.289 38.3854 172.857 38.3228 173.794 38.077C176.492 37.3687 178.267 35.3749 178.034 33.3153C177.973 32.7757 177.867 32.6755 177.185 32.5087C176.41 32.319 175.799 32.2667 174.879 32.3134C173.19 32.399 171.693 32.9587 170.594 33.9139C169.983 34.4447 169.552 35.0318 169.285 35.6991C169.151 36.0338 169.022 36.8456 169.043 37.2225L169.057 37.4862L168.247 37.9471C166.041 39.2025 165.005 40.1057 164.388 41.3104L164.188 41.6981L163.99 41.3368C163.493 40.4319 163.455 39.27 163.887 38.2323C164.091 37.7415 164.517 37.0322 164.963 36.4442C166.412 34.5296 166.903 33.0369 166.696 31.1708C166.602 30.32 166.442 29.6867 165.891 27.9891C165.465 26.6717 165.217 25.662 165.037 24.496L164.914 23.6981L165.267 23.3915C165.711 23.0058 165.951 22.6652 166.086 22.2303C166.413 21.1749 165.76 20.0039 164.566 19.5048ZM174.39 40.5106C173.84 40.2755 172.121 40.2273 171.119 40.4188C167.896 41.0348 166.387 43.3493 166.466 45.8319C166.475 46.1264 166.494 46.53 166.557 46.5819C166.709 46.7042 167.663 46.6336 168.367 46.5751C170.68 46.3827 172.521 45.8758 173.737 44.58C174.624 43.6349 175.035 42.3618 174.805 41.2704C174.693 40.7401 174.621 40.6094 174.39 40.5106ZM172.387 41.3671C172.837 41.3563 173.26 41.3618 173.327 41.3788C173.427 41.4045 173.451 41.4755 173.469 41.7968C173.558 43.4567 172.049 44.9739 169.874 45.411C169.573 45.4715 169.203 45.5198 169.051 45.5184L168.774 45.5155L170.337 44.3593C172.053 43.0889 172.132 43.0051 171.92 42.6708C171.787 42.462 171.414 42.3369 171.113 42.4012C170.998 42.426 170.317 42.8932 169.361 43.6014C168.501 44.239 167.785 44.7409 167.77 44.7167C167.706 44.6077 167.952 43.8626 168.173 43.496C168.75 42.5365 169.767 41.8431 171.088 41.5087C171.473 41.411 171.729 41.3829 172.387 41.3671ZM153.793 37.8866C153.877 37.8002 153.884 37.8001 154.364 37.8983C156.632 38.3629 158.051 40.1319 157.558 41.8788C157.347 42.628 157.406 42.6769 156.401 40.9198C155.381 39.1367 155.292 39.0376 154.786 39.1132C154.639 39.1352 154.448 39.2075 154.362 39.2743C154.049 39.518 154.077 39.6027 155.012 41.2255C155.485 42.0474 155.863 42.729 155.859 42.7499C155.807 42.8001 154.966 42.3649 154.56 42.077C153.702 41.468 153.254 40.7056 153.2 39.7626C153.18 39.4033 153.206 39.1368 153.288 38.8719C153.397 38.5208 153.642 38.0421 153.793 37.8866ZM174.171 33.4344C174.888 33.3099 175.735 33.3082 176.394 33.4296C176.595 33.4664 176.62 33.4909 176.63 33.66C176.675 34.4657 176.113 35.4904 175.27 36.1376C174.451 36.7665 173.509 37.1148 172.356 37.2167L171.677 37.2772L173.336 36.1981C174.248 35.6049 175.04 35.0661 175.096 35.0009C175.391 34.6515 174.992 34.2034 174.411 34.2313C174.197 34.2417 174.213 34.2317 171.995 35.662C171.197 36.1761 170.534 36.5896 170.521 36.5809C170.469 36.5451 170.693 35.8916 170.861 35.5868C171.449 34.5226 172.74 33.6828 174.171 33.4344ZM153.067 31.4305C154.35 31.4527 155.441 31.929 156.043 32.7294C156.259 33.0167 156.504 33.5092 156.453 33.5516C156.435 33.5553 156.077 33.3089 155.651 32.9999C155.221 32.6879 154.786 32.4113 154.682 32.3846C154.238 32.2712 153.748 32.5725 153.769 32.9462C153.78 33.1322 153.842 33.1907 154.642 33.7645C155.116 34.1045 155.473 34.3848 155.435 34.3866C155.19 34.3984 154.425 34.1996 154.022 34.0194C153.032 33.5764 152.389 32.7542 152.343 31.871C152.328 31.5955 152.363 31.5169 152.523 31.4589C152.578 31.4389 152.823 31.4263 153.067 31.4305ZM173.551 25.0927C173.3 25.0102 172.742 25.038 172.038 25.1678C169.651 25.6083 167.819 27.0437 167.325 28.8612C167.156 29.482 167.213 30.4637 167.448 31.0165C167.654 31.5005 168.055 32.1361 168.225 32.2499C168.331 32.3204 168.464 32.3316 168.923 32.3094C172.505 32.1359 175.188 29.6597 174.671 27.0038C174.51 26.18 173.95 25.2248 173.551 25.0927ZM158.156 28.8251C158.198 28.6845 158.398 28.6659 159.083 28.7401C160.413 28.8843 161.571 29.6961 161.803 30.6464L161.864 30.8964L160.944 30.2587L160.025 29.6219L159.732 29.6649C159.321 29.7263 159.098 29.9218 159.114 30.2059C159.127 30.4424 159.127 30.4434 160.154 31.204L160.682 31.5946L160.378 31.5214C159.066 31.2072 158.198 30.3554 158.142 29.3251C158.131 29.1142 158.137 28.8893 158.156 28.8251ZM173.074 26.5643C173.316 27.0453 173.39 27.9203 173.231 28.4374C172.966 29.3026 172.224 30.1395 171.305 30.6102C170.885 30.8251 170.136 31.1016 170.079 31.0634C170.06 31.0456 170.5 30.3597 171.057 29.536C171.828 28.3976 172.071 27.9928 172.064 27.8593C172.051 27.6251 171.747 27.3975 171.422 27.3778C170.97 27.3506 170.863 27.4598 169.807 29.0302C169.272 29.8268 168.813 30.4797 168.786 30.4843C168.685 30.4896 168.602 29.712 168.662 29.33C168.886 27.9077 170.146 26.7512 171.975 26.2899C172.179 26.2386 172.467 26.1956 172.616 26.1942L172.887 26.1913L173.074 26.5643ZM160.002 22.871C159.127 22.5982 158.345 22.5439 157.514 22.6981C157.068 22.781 156.856 22.9517 156.779 23.2899C156.696 23.6536 156.752 24.3801 156.888 24.702C157.452 26.0418 159.289 26.8774 161.182 26.6561C162.039 26.556 162.235 26.3507 162.272 25.5106C162.322 24.3961 161.38 23.301 160.002 22.871ZM170.023 22.0009C169.537 22.0106 169.272 22.0416 168.959 22.1268C167.841 22.4314 166.938 23.1976 166.692 24.0516C166.577 24.451 166.62 25.0544 166.785 25.368C166.944 25.6699 167.2 25.768 167.87 25.7821C169.09 25.8077 170.443 25.2175 171.01 24.412C171.395 23.8636 171.529 23.1862 171.36 22.6346C171.186 22.0666 171.005 21.9811 170.023 22.0009ZM158.503 23.6757C159.658 23.7096 160.583 24.2899 160.847 25.1464C160.895 25.3002 160.916 25.4745 160.894 25.5341C160.859 25.6323 160.818 25.6415 160.457 25.6346C159.263 25.6119 158.256 24.9211 158.128 24.037L158.074 23.663L158.503 23.6757ZM170.009 23.3016C169.942 23.9561 169.228 24.5588 168.365 24.6893L168.061 24.7352L168.051 24.5516C168.037 24.3041 168.225 23.896 168.472 23.6376C168.593 23.512 168.841 23.3549 169.083 23.2509C169.333 23.1434 169.596 23.0705 169.763 23.0624L170.034 23.0487L170.009 23.3016ZM164.254 20.7059C164.863 21.1782 164.899 22.127 164.325 22.5829L164.136 22.7323L163.922 22.5223C163.636 22.2418 163.522 22.0008 163.504 21.6356C163.488 21.3192 163.615 20.998 163.879 20.6913L164.021 20.5253L164.254 20.7059Z" fill="#E45969"/>
</svg>
