<svg width="30" height="24" viewBox="0 0 30 24" fill="none" xmlns="http://www.w3.org/2000/svg">
<path d="M12.2917 1.69478C13.2909 0.598537 13.9695 0.140514 14.7596 0.0288559C15.3797 -0.0587014 17.3912 0.0665837 17.8676 0.222478C19.2711 0.68162 19.9946 1.31038 20.294 2.33077C20.4353 2.81279 20.4115 3.16668 20.1794 4.03371C19.8387 5.30639 19.9891 5.9137 20.7373 6.28579C21.2024 6.51704 21.5602 6.52314 22.2335 6.31122C23.6123 5.87709 24.8649 5.73859 25.4736 5.95285C25.6121 6.00166 25.9229 6.09929 26.1641 6.16986C26.8337 6.36572 27.4252 6.61517 27.4252 6.70172C27.4252 6.74443 27.4975 6.77941 27.5858 6.77941C27.9115 6.77941 29.2289 8.12999 29.6191 8.86411C29.9806 9.54382 29.9978 9.62649 29.9999 10.6946C30.0021 11.7338 29.9791 11.8553 29.6787 12.4059C29.1264 13.4174 27.8809 14.3149 26.4224 14.7524C25.4174 15.0538 24.4486 15.1487 23.0411 15.0838C21.5454 15.0149 21.3045 15.0664 20.928 15.5368C20.588 15.9617 20.6494 16.396 21.1999 17.4571C21.8175 18.6474 21.8517 18.7749 21.9108 20.1011C21.9636 21.289 21.8915 21.6118 21.3297 22.7C20.8885 23.5544 20.4918 23.8103 19.382 23.956C18.5089 24.0707 16.9309 23.9512 16.1748 23.7132C14.5222 23.1931 13.1518 22.1859 12.5532 21.0513C12.2054 20.392 11.7417 20.034 11.115 19.9411C10.2177 19.808 9.94961 19.9305 8.79458 21.0009C8.03563 21.7041 7.53909 22.073 7.07633 22.2772C6.7184 22.4353 6.33986 22.6052 6.23514 22.6548C6.13041 22.7046 5.49593 22.7451 4.82525 22.7451C3.69445 22.7451 3.55518 22.7228 2.91105 22.4377C1.4539 21.7928 0.668412 20.3943 0.668412 18.4448C0.668412 16.1338 1.82444 14.1219 4.01301 12.6241C4.86243 12.0427 5.10598 11.6612 4.99084 11.0919C4.89335 10.6102 4.52446 10.3152 3.60574 9.98404C1.38657 9.18433 0.0240557 7.67786 0.000369361 5.99739C-0.0189306 4.6279 0.719403 3.56206 1.9137 3.23532C2.59896 3.0479 5.17846 3.1978 5.33604 3.43433C5.36938 3.48437 5.47904 3.52525 5.57982 3.52525C5.95496 3.52525 7.32591 4.08181 8.00087 4.50811C8.77133 4.9946 9.24977 5.06996 9.72722 4.77983C10.0012 4.61336 10.757 3.61636 10.757 3.42162C10.757 3.36671 10.7941 3.32156 10.8393 3.32115C10.8845 3.32074 11.0449 3.15244 11.1957 2.94713C11.3464 2.74181 11.5192 2.5248 11.5795 2.4648C11.6398 2.4048 11.9603 2.05833 12.2917 1.69478Z" fill="#6682F1"/>
</svg>
