<svg width="37" height="50" viewBox="0 0 37 50" fill="none" xmlns="http://www.w3.org/2000/svg">
<path fill-rule="evenodd" clip-rule="evenodd" d="M19.6113 0.0488038C19.1697 0.151527 18.8207 0.397575 18.5951 0.765129C18.4247 1.04268 18.4031 1.26466 18.4031 2.74094C18.4031 4.21723 18.4247 4.43921 18.5951 4.71676C19.1268 5.58296 20.2896 5.72325 21.0378 5.01162C21.4702 4.60034 21.5528 4.23621 21.5528 2.74094C21.5528 2.04144 21.5092 1.31309 21.4558 1.12241C21.3458 0.729029 20.8378 0.203183 20.4706 0.102514C20.0233 -0.0200699 19.9319 -0.025842 19.6113 0.0488038ZM8.81857 2.92839C8.35196 3.09764 8.12014 3.30181 7.92111 3.71848C7.62211 4.34421 7.7078 4.70727 8.46522 6.02516C8.8496 6.69404 9.25948 7.34442 9.37618 7.47063C10.0749 8.22628 11.1943 8.13011 11.8443 7.25853C11.997 7.05386 12.0501 6.83834 12.0493 6.42696C12.0483 5.91393 11.993 5.77823 11.3251 4.64867C10.4853 3.22824 10.4719 3.21005 10.1337 3.0364C9.71693 2.82224 9.22294 2.78174 8.81857 2.92839ZM25.0992 8.59716C24.0637 8.87716 23.1389 9.55543 22.4675 10.527C22.297 10.7737 20.311 14.4718 18.0541 18.7449C15.7973 23.018 13.8379 26.7223 13.7 26.9768C13.4043 27.5224 13.1446 27.6446 12.867 27.3689C12.7602 27.2627 12.0147 25.8467 11.2103 24.2222C10.406 22.5977 9.63735 21.0811 9.50214 20.8519C9.15528 20.264 7.98896 19.2025 7.34706 18.8905C5.83467 18.1554 4.59389 18.1763 3.10061 18.9617C2.39843 19.3311 1.50983 20.1921 1.14672 20.8551C0.561838 21.9229 0.41835 23.3806 0.766779 24.713C1.13727 26.1295 4.29647 35.7633 5.06286 37.8137C6.18526 40.8165 7.50285 42.9316 9.46225 44.8754C11.9668 47.3601 15.1807 49.156 18.304 49.816C19.4701 50.0624 22.2301 50.0611 23.4707 49.8135C26.289 49.2508 28.5771 48.0557 30.5208 46.1311C31.7857 44.8784 32.1661 44.3148 33.7097 41.4067C36.6219 35.92 36.9285 35.2975 36.9846 34.7568C37.0932 33.7121 36.6225 32.544 35.7038 31.578C35.2138 31.0628 34.2138 30.4766 33.8238 30.476C33.6374 30.4757 33.6165 30.4147 33.6022 29.8307C33.5634 28.2405 32.1836 26.8371 30.5109 26.6865L29.949 26.6358L29.8854 26.0858C29.7067 24.5403 28.3879 23.3385 26.8294 23.3007L26.2056 23.2856L26.5343 22.6364C26.7151 22.2794 27.7257 20.3589 28.7798 18.3687C29.834 16.3786 30.7442 14.5796 30.8025 14.3709C31.1661 13.0702 30.588 11.1357 29.481 9.94773C28.3844 8.7712 26.5484 8.20525 25.0992 8.59716ZM0.873041 10.7326C-0.105772 11.2328 -0.30185 12.5102 0.490635 13.2244C0.619548 13.3405 1.23457 13.7323 1.85747 14.0948C2.79669 14.6415 3.08249 14.7615 3.53166 14.7973C3.98232 14.8333 4.12974 14.8021 4.40894 14.6118C5.15583 14.1027 5.37219 13.415 5.02839 12.6429C4.81124 12.1553 4.66982 12.0485 3.03718 11.139C1.87421 10.4912 1.48767 10.4186 0.873041 10.7326Z" fill="#2C6112"/>
</svg>
