<svg width="49" height="50" viewBox="0 0 49 50" fill="none" xmlns="http://www.w3.org/2000/svg">
<path fill-rule="evenodd" clip-rule="evenodd" d="M9.34152 0.216679C6.26762 1.03769 3.83272 3.49133 3.08106 6.52534C2.83575 7.51559 2.83575 9.52537 3.08106 10.5156C3.84324 13.5921 6.38213 16.1063 9.48884 16.861C10.4828 17.1024 12.5162 17.1037 13.5183 16.8634C14.5763 16.6098 16.2363 15.7853 16.9952 15.1365C18.4416 13.8998 19.5144 12.2099 19.9286 10.5156C20.1712 9.5232 20.1699 7.50964 19.9261 6.52534C19.164 3.44888 16.6251 0.934704 13.5183 0.179949C12.4703 -0.0746497 10.3626 -0.0561127 9.34152 0.216679ZM35.3406 0.216679C32.2667 1.03769 29.8318 3.49133 29.0801 6.52534C28.8348 7.51559 28.8348 9.52537 29.0801 10.5156C29.6933 12.991 31.5063 15.1916 33.805 16.2508C34.7049 16.6655 35.9591 17.0356 36.5279 17.0546C36.6827 17.0598 36.2894 17.1562 35.6538 17.2689C33.4997 17.651 31.8972 18.3607 30.2677 19.654C28.4587 21.09 26.9827 23.3074 26.33 25.57L26.066 26.4854L26.0324 38.2427L25.999 50H37.4995H49L48.9987 38.6432C48.998 32.397 48.9659 27.0977 48.9274 26.8671L48.8574 26.4478L48.3583 26.6597C47.1021 27.1929 45.4835 27.2355 44.223 26.7684C42.7043 26.2057 41.3269 24.8896 40.8016 23.4992C40.2769 22.1105 40.2194 19.7423 40.675 18.2926C40.8316 17.7943 40.8544 17.5893 40.7571 17.5545C40.4513 17.4452 38.9053 17.1589 38.564 17.1484C38.3013 17.1404 38.3945 17.0976 38.8893 16.999C41.8112 16.4167 44.0236 14.7785 45.2395 12.2965C45.9073 10.9334 46.1112 10.0501 46.1112 8.52048C46.1112 7.04976 45.9127 6.14373 45.3089 4.85884C44.2391 2.58221 42.0172 0.787323 39.5174 0.179949C38.4693 -0.0746497 36.3617 -0.0561127 35.3406 0.216679ZM9.25035 17.3304C5.01285 18.172 1.53949 21.3806 0.330939 25.57L0.0669036 26.4854L0.0333945 38.2427L0 50H11.5005H23.001V39.4894C23.001 28.3456 23.0571 26.774 23.5172 25.0275C24.2958 22.0728 26.0708 19.3306 28.4119 17.4659L28.7962 17.1597L19.3989 17.1704C12.1715 17.1787 9.82799 17.2156 9.25035 17.3304ZM44.8658 17.4501C43.6866 18.0405 43.338 18.7837 43.338 20.7069C43.338 22.2555 43.4602 22.6942 44.0661 23.3201C44.6809 23.9553 45.2484 24.1901 46.169 24.1901C47.1278 24.1901 47.6974 23.9403 48.3366 23.2397C48.9218 22.5983 49.0266 22.1476 48.9812 20.4672C48.9441 19.0977 48.9255 19.0017 48.5926 18.469C48.0761 17.6428 47.3391 17.2297 46.2958 17.1821C45.5916 17.1499 45.3895 17.1878 44.8658 17.4501Z" fill="#2C6112"/>
</svg>
