<svg width="46" height="50" viewBox="0 0 46 50" fill="none" xmlns="http://www.w3.org/2000/svg">
<path fill-rule="evenodd" clip-rule="evenodd" d="M20.1752 0.135488C20.1406 0.226014 19.8827 1.00584 19.6023 1.86839L19.0923 3.43654L17.2491 3.48656C15.7152 3.52817 15.4016 3.56178 15.3802 3.68661C15.3643 3.77874 15.8572 4.20336 16.6565 4.78623C17.3727 5.30838 18.0233 5.80733 18.1021 5.89475C18.2281 6.03449 18.1812 6.25406 17.7154 7.70187C17.4239 8.60824 17.2032 9.40347 17.2249 9.46908C17.3065 9.71486 17.604 9.56181 18.9559 8.57843C19.7195 8.02297 20.4037 7.59144 20.4764 7.61945C20.5491 7.64746 21.1995 8.10189 21.9217 8.62934C23.2014 9.56391 23.4521 9.69385 23.5785 9.48869C23.6291 9.40637 23.3551 8.4723 22.6308 6.25846C22.5419 5.98688 22.5771 5.95167 23.9563 4.92957C24.8216 4.28849 25.3732 3.81285 25.3732 3.70812C25.3732 3.55418 25.1871 3.53147 23.5617 3.48656C22.5655 3.45905 21.7311 3.41404 21.7077 3.38653C21.6842 3.35902 21.4226 2.5938 21.1264 1.68604C20.7251 0.45638 20.5432 0.0272564 20.413 0.00314946C20.3169 -0.0146557 20.2099 0.0448617 20.1752 0.135488ZM4.92648 4.30129C4.8877 4.36421 4.67046 4.98309 4.44375 5.67669C4.21704 6.37019 3.99671 6.99387 3.95414 7.06259C3.89761 7.15392 3.46113 7.18763 2.33735 7.18763C1.05365 7.18763 0.797931 7.21193 0.797931 7.33377C0.797931 7.41419 1.33629 7.86972 1.99429 8.34616C2.68848 8.84881 3.18986 9.28083 3.18876 9.37536C3.18767 9.46498 3.00821 10.101 2.78998 10.7887C2.35958 12.1446 2.3201 12.3891 2.53106 12.3891C2.60703 12.3891 3.19155 12.0065 3.83001 11.5389C4.46857 11.0712 5.03974 10.6886 5.09925 10.6886C5.15887 10.6886 5.70521 11.0553 6.31336 11.5037C7.44213 12.3356 7.70932 12.4795 7.81291 12.3113C7.84511 12.259 7.66954 11.6136 7.42279 10.8772C7.17594 10.1408 6.98632 9.46068 7.00147 9.36586C7.01663 9.27093 7.54452 8.8198 8.17461 8.36327C8.80459 7.90673 9.33508 7.4555 9.35332 7.36048C9.38353 7.20313 9.25692 7.18763 7.94171 7.18763C7.14713 7.18763 6.42692 7.16072 6.34138 7.12771C6.24487 7.0906 6.01328 6.52073 5.73153 5.62728C5.29536 4.24448 5.12956 3.9715 4.92648 4.30129ZM35.4474 4.51185C35.3734 4.6906 35.168 5.30958 34.9912 5.88725C34.8142 6.46492 34.6248 6.99387 34.5703 7.06259C34.4987 7.15292 34.0451 7.18763 32.938 7.18763C31.6598 7.18763 31.4049 7.21193 31.4049 7.33377C31.4049 7.41419 31.9432 7.86972 32.6012 8.34616C33.3461 8.88542 33.7976 9.27853 33.7976 9.38756C33.7976 9.48399 33.6182 10.1261 33.3988 10.8144C32.9645 12.1773 32.9294 12.3891 33.138 12.3891C33.214 12.3891 33.7985 12.0065 34.437 11.5389C35.0755 11.0712 35.6439 10.6886 35.7001 10.6886C35.7564 10.6886 36.3377 11.0762 36.992 11.5501C37.777 12.1185 38.2366 12.3904 38.3429 12.3494C38.4445 12.3103 38.4805 12.2257 38.4401 12.1203C38.405 12.0283 38.1876 11.3475 37.957 10.6074L37.5377 9.26162L37.7718 9.10568C38.7074 8.4825 39.9788 7.46491 39.9788 7.33947C39.9788 7.21073 39.7601 7.18763 38.5414 7.18763C37.7508 7.18763 37.0353 7.16122 36.9514 7.12891C36.8589 7.0933 36.6191 6.50263 36.3422 5.62848C35.8549 4.09003 35.7013 3.89848 35.4474 4.51185ZM3.68107 14.8731C1.91982 15.3345 0.435234 16.9388 0.108427 18.7344C-0.0336407 19.5145 -0.0372298 35.4573 0.10434 36.4405C0.309616 37.8655 1.25803 39.2614 2.50564 39.9746C3.34429 40.454 4.07268 40.5973 5.67251 40.5973H7.07884V45.1331C7.07884 49.4003 7.0896 49.6787 7.26118 49.8344C7.36148 49.9255 7.53126 50 7.63844 50C7.75458 50 9.98291 48.0789 13.1499 45.2486L18.4663 40.4973H20.3496H22.2328V37.014C22.2328 33.1351 22.2577 32.9524 22.8865 32.2154C23.0756 31.9937 23.4433 31.7071 23.7036 31.5785C24.1524 31.3567 24.2992 31.3429 26.5463 31.3117C28.0605 31.2906 29.104 31.3195 29.4375 31.3919L29.9593 31.5051L30.2827 31.1247C30.7216 30.6086 31.3508 29.3058 31.6019 28.3938C31.7256 27.944 31.8444 27.0814 31.8986 26.2402C31.9937 24.7625 32.1042 24.299 32.5388 23.5549C33.2272 22.3762 34.6964 21.9754 36.0422 22.5992C36.7358 22.9207 38.0507 24.2598 38.5399 25.1428C39.2707 26.4619 39.499 27.2768 39.5557 28.7689L39.606 30.0942H40.1912H40.7764V24.6374C40.7764 20.0499 40.7516 19.0711 40.6207 18.4934C40.2169 16.7126 38.5737 15.1197 36.7999 14.7897C36.4557 14.7257 30.5293 14.6919 20.3 14.6956C5.54291 14.7009 4.28762 14.7143 3.68107 14.8731ZM34.0151 23.7954C33.4943 24.1141 33.2838 24.7213 33.1898 26.1759C33.1457 26.8565 33.0598 27.6678 32.9986 27.9786C32.6788 29.6055 31.9395 31.1545 30.8983 32.3782L30.1892 33.2118L29.9745 33.0159C29.5356 32.6154 29.3864 32.595 26.9002 32.5954C24.6717 32.5957 24.4502 32.6115 24.1568 32.791C23.5104 33.1864 23.5288 32.9959 23.5288 39.2771V44.9689L23.7561 45.3074C24.1398 45.8786 24.2335 45.8957 26.9856 45.8973L29.4954 45.8988L29.7968 45.6443C29.9626 45.5044 30.1259 45.3023 30.1597 45.1954C30.2184 45.0098 30.2471 45.0145 30.7893 45.2975C31.1017 45.4607 31.501 45.623 31.6766 45.6582C32.3149 45.7864 32.8006 45.5007 32.8006 44.9971C32.8006 44.6451 32.4857 44.3984 32.0364 44.3984C31.8355 44.3984 31.4515 44.2393 31.0117 43.9738L30.3082 43.5491V39.0963V34.6435L30.8674 34.1957C31.9053 33.3648 33.0291 31.7861 33.5985 30.3595C34.0956 29.1139 34.3003 28.1532 34.3939 26.6254C34.4705 25.3761 34.5848 24.7927 34.7532 24.7927C35.1309 24.7927 36.1052 25.8338 36.5479 26.7104C37.0995 27.8024 37.2004 28.8138 36.9304 30.5444C36.8445 31.0945 36.7499 31.7082 36.72 31.9082C36.6784 32.1864 36.712 32.3181 36.863 32.4696C37.0513 32.6586 37.1668 32.6654 39.3919 32.6192C43.3438 32.537 44.5944 32.8286 44.733 33.8645C44.8163 34.4886 44.6996 34.9185 44.3284 35.3545C43.8082 35.9654 43.7969 36.1176 44.236 36.6052C44.5667 36.9725 44.6147 37.0885 44.6147 37.5194C44.6147 38.0355 44.5043 38.1857 43.7266 38.7264C43.4324 38.931 43.3911 39.2993 43.6178 39.697C43.9574 40.2932 43.6909 41.0098 43.0186 41.3082C42.507 41.5353 42.4308 41.7139 42.5181 42.4799C42.5733 42.9634 42.5475 43.115 42.3452 43.4981C42.2144 43.7457 41.9584 44.0495 41.7762 44.1733C41.4465 44.3973 41.4249 44.3984 37.5369 44.3984C33.8196 44.3984 33.6207 44.4077 33.4571 44.589C33.3477 44.7104 33.2967 44.9007 33.3171 45.112C33.3734 45.6984 33.4129 45.7034 37.7855 45.6747L41.7235 45.6487L42.2063 45.4013C43.1145 44.9359 43.7635 43.8951 43.7676 42.8979C43.7696 42.3836 43.7917 42.3335 44.1074 42.1284C44.6284 41.7899 45.0004 40.9399 44.9879 40.116C44.9789 39.5227 45.0071 39.4237 45.2701 39.1232C45.9096 38.3924 46.0719 37.2965 45.6654 36.4541C45.4684 36.046 45.4629 35.9877 45.6016 35.7753C45.913 35.2987 46.0755 34.3629 45.9657 33.6792C45.8318 32.8448 45.4699 32.3316 44.7604 31.9697C43.8383 31.4994 43.0776 31.3983 40.4445 31.3963L38.0687 31.3946L38.1296 31.1163C38.2699 30.4757 38.3526 28.7961 38.2745 28.1718C38.1128 26.8776 37.4026 25.4492 36.4275 24.4568C35.5878 23.6022 34.72 23.3643 34.0151 23.7954ZM7.05461 24.0961C5.89224 24.3859 5.08929 25.4265 5.08929 26.6433C5.08929 27.6482 5.63014 28.5423 6.5305 29.0253C7.09349 29.3274 8.25965 29.3271 8.82882 29.0246C10.0885 28.3552 10.648 26.8284 10.0932 25.5743C9.87972 25.0917 9.21754 24.4431 8.72952 24.2386C8.28417 24.0518 7.49986 23.9851 7.05461 24.0961ZM14.9488 24.1242C14.1873 24.3383 13.5102 24.938 13.2065 25.6673C13.0307 26.0893 13.0171 26.9741 13.1779 27.5128C13.3267 28.0112 13.9605 28.7378 14.4935 29.0208C15.0703 29.3271 16.2326 29.3294 16.7993 29.0253C17.9615 28.4018 18.5109 27.057 18.1276 25.7737C17.9741 25.2595 17.3534 24.5612 16.8231 24.3061C16.2669 24.0386 15.5134 23.9654 14.9488 24.1242ZM22.9246 24.1242C22.1776 24.3342 21.4716 24.9414 21.1912 25.6148C20.9979 26.079 20.9897 27.1877 21.1763 27.6357C21.371 28.1033 21.9923 28.7673 22.4752 29.0238C23.0459 29.3271 24.2114 29.3278 24.775 29.0253C26.7062 27.9892 26.7062 25.2943 24.775 24.3066C24.2528 24.0395 23.4922 23.9646 22.9246 24.1242ZM7.12869 25.3883C6.58384 25.6144 6.25215 26.3295 6.38953 26.9814C6.56001 27.7903 7.59188 28.2467 8.33821 27.8435C8.68924 27.6537 9.07277 27.0048 9.07277 26.6002C9.07277 26.2637 8.69762 25.6501 8.375 25.4589C8.07979 25.2839 7.46426 25.249 7.12869 25.3883ZM15.1044 25.3829C14.2386 25.7658 14.0556 26.9707 14.7605 27.6483C15.0294 27.9068 15.1406 27.9436 15.6528 27.9436C16.1652 27.9436 16.2761 27.9069 16.5458 27.6477C17.4246 26.8029 16.9678 25.416 15.7821 25.3296C15.5191 25.3104 15.2141 25.3344 15.1044 25.3829ZM22.7983 25.5911C22.0905 26.2147 22.0925 27.0735 22.8032 27.6997C23.1318 27.989 23.2075 28.0119 23.7012 27.9709C24.1352 27.9348 24.2994 27.8668 24.5425 27.6228C25.0876 27.0761 25.0862 26.2091 24.5396 25.6606C24.2996 25.4199 24.1337 25.3516 23.7012 25.3156C23.2063 25.2745 23.1322 25.2971 22.7983 25.5911Z" fill="#2C6112"/>
</svg>
