<svg width="51" height="51" viewBox="0 0 51 51" fill="none" xmlns="http://www.w3.org/2000/svg">
<path fill-rule="evenodd" clip-rule="evenodd" d="M11.9805 0.542933C11.7307 0.582825 11.3457 0.722828 11.1249 0.853997C10.9041 0.98526 8.51191 3.30736 5.80885 6.01423C2.07973 9.7487 0.847689 11.0391 0.701585 11.3634C0.420785 11.9865 0.435043 12.9707 0.733715 13.5954C0.914039 13.9727 2.20397 15.3105 7.00657 20.1014C10.3318 23.4184 13.0524 26.1727 13.0524 26.2221C13.0524 26.2715 11.6761 27.6608 9.99395 29.3093C6.52225 32.7117 5.71055 33.5976 5.27833 34.4561C5.11074 34.7889 3.98592 37.9676 2.77869 41.5199C0.689608 47.6669 0.585425 48.0071 0.619836 48.5688C0.664608 49.3001 1.0302 49.8623 1.67906 50.1979C2.48249 50.6134 2.47993 50.6141 9.26001 48.311C12.679 47.1495 15.6853 46.1172 15.9407 46.0168C17.0504 45.5805 17.6879 45.0361 21.2993 41.4409L24.8408 37.9152L31.0427 44.095C37.8659 50.8939 37.3933 50.4956 38.6391 50.4956C39.7317 50.4956 39.6846 50.535 45.1928 45.0136C49.7028 40.4928 50.2094 39.9542 50.3497 39.5321C50.5648 38.8846 50.5473 38.0135 50.3086 37.4832C50.1611 37.1555 48.6976 35.6371 44.0369 30.976C40.6932 27.6321 37.9575 24.8613 37.9575 24.8187C37.9575 24.776 40.1033 22.6181 42.7258 20.0231C47.8088 14.9937 48.69 14.0586 49.2772 13.071C51.1459 9.92812 50.7191 5.8994 48.2389 3.2688C47.4553 2.43762 46.8212 1.96338 45.8701 1.49721C44.6299 0.889234 44.226 0.772788 42.8719 0.6325C41.8271 0.524222 40.8671 0.616828 39.8158 0.927322C39.0862 1.14283 37.9028 1.71329 37.3872 2.09806C37.019 2.37275 35.1369 4.21262 29.7591 9.55475L26.171 13.1191L20.0157 6.98114C14.7241 1.70446 13.8004 0.822653 13.4327 0.696233C12.8423 0.493448 12.5099 0.458305 11.9805 0.542933ZM12.1494 2.33855C11.8282 2.4758 2.32584 12.0598 2.30673 12.2657C2.2553 12.818 2.3266 12.9295 3.47052 14.0856C4.10826 14.7302 4.67205 15.2576 4.72338 15.2576C4.77471 15.2576 5.42443 14.6592 6.16731 13.9279C7.4119 12.7026 7.54564 12.5981 7.86856 12.5981C8.35953 12.5981 8.77484 13.0159 8.77484 13.5098C8.77484 13.8413 8.67911 13.9625 7.39802 15.253L6.0212 16.6397L7.80287 18.4182C8.78291 19.3963 9.62741 20.1966 9.67959 20.1966C9.73178 20.1966 10.7793 19.1879 12.0076 17.9551C13.2358 16.7223 14.3656 15.6588 14.5182 15.5918C15.1147 15.3303 15.714 15.7492 15.714 16.4277C15.714 16.8095 15.6695 16.8614 13.3358 19.1932L10.9575 21.5695L12.6466 23.2498L14.3357 24.9301L19.6589 19.6684L24.9822 14.4068L19.0411 8.45904C15.6293 5.04343 12.9697 2.45462 12.7941 2.37825C12.4483 2.2278 12.4133 2.22571 12.1494 2.33855ZM41.0944 2.43078C40.4617 2.55036 39.4588 2.9375 38.8388 3.30166C38.5233 3.48687 37.6501 4.2509 36.7721 5.10991L35.2515 6.59741L39.7626 11.1412C42.2438 13.6403 44.3119 15.7009 44.3583 15.7203C44.4669 15.7655 46.4788 13.7726 47.0787 13.0255C48.118 11.7313 48.6155 10.4246 48.6157 8.98885C48.6158 7.13491 48.0302 5.75787 46.6553 4.37922C45.7433 3.46484 45.0275 3.01767 43.8511 2.62786C43.1607 2.39915 41.7831 2.30056 41.0944 2.43078ZM21.2309 20.6205C14.2015 27.6444 8.4698 33.407 8.49366 33.4263C8.51761 33.4455 8.90079 33.6671 9.34518 33.9188C10.4108 34.5223 11.6353 35.361 12.4565 36.0499L13.1211 36.6076L25.5397 24.1987L37.9583 11.7898L35.985 9.81974L34.0117 7.84974L21.2309 20.6205ZM26.812 25.4607C20.0284 32.2575 14.4783 37.8503 14.4783 37.8891C14.4783 37.9279 14.7392 38.2692 15.0582 38.6475C15.7052 39.4148 16.6372 40.796 17.1888 41.8048C17.3888 42.1705 17.5682 42.4893 17.5876 42.5132C17.6389 42.5762 43.0907 17.1283 43.0907 17.014C43.0907 16.9108 39.2703 13.0631 39.1924 13.088C39.1668 13.0961 33.5956 18.6638 26.812 25.4607ZM31.3696 31.3853L26.065 36.6869L27.811 38.3597L29.557 40.0326L31.9313 37.6656C34.1964 35.4075 34.3221 35.2986 34.6655 35.2986C35.143 35.2986 35.5811 35.7135 35.5811 36.1657C35.5811 36.4465 35.3398 36.7192 33.1579 38.9054L30.7346 41.3333L32.5638 43.1555L34.3929 44.9777L35.8155 43.605C37.0704 42.3942 37.2758 42.2323 37.5566 42.2323C37.9912 42.2323 38.2354 42.3816 38.3847 42.7386C38.606 43.2678 38.4866 43.4634 37.0937 44.8526C36.3663 45.578 35.7712 46.2194 35.7712 46.278C35.7712 46.4716 38.1016 48.66 38.3603 48.7094C38.496 48.7353 38.7282 48.7032 38.8764 48.6381C39.2219 48.4861 48.5691 39.126 48.6792 38.8216C48.7247 38.6957 48.7427 38.482 48.7192 38.3467C48.6895 38.1757 46.844 36.2659 42.6754 32.0922L36.6743 26.0838L31.3696 31.3853ZM7.07748 34.9497C6.86703 35.2031 6.45704 36.2477 5.77576 38.2661L5.0788 40.3312L5.52472 40.6342C7.03053 41.6573 8.70468 43.2718 9.91382 44.8668L10.7061 45.9121L12.9012 45.1789C14.9759 44.4859 16.0082 44.0628 16.1384 43.8525C16.2628 43.6513 15.1037 41.6538 14.0835 40.3117C13.2788 39.2531 11.6842 37.6738 10.5809 36.8431C9.80963 36.2623 7.43253 34.8237 7.24412 34.8237C7.21 34.8237 7.13509 34.8804 7.07748 34.9497ZM3.3671 45.3258C2.58924 47.6156 2.31357 48.5417 2.38762 48.6157C2.46167 48.6896 3.38183 48.4181 5.65656 47.6506C7.39773 47.0633 8.83719 46.5685 8.85544 46.5511C8.93045 46.4794 7.69783 44.9743 6.93889 44.2107C6.26569 43.5335 4.60903 42.135 4.48355 42.1381C4.46492 42.1386 3.96254 43.573 3.3671 45.3258Z" fill="#FFAEA0" stroke="#FFAEA0"/>
</svg>
