<svg width="58" height="52" viewBox="0 0 58 52" fill="none" xmlns="http://www.w3.org/2000/svg">
<path fill-rule="evenodd" clip-rule="evenodd" d="M27.8891 3.66241V6.72482L24.3662 8.74558C22.4287 9.85698 20.7707 10.8337 20.6819 10.9162C20.5455 11.0428 20.5123 11.7267 20.4668 15.3306L20.413 19.595L16.9708 21.5919C15.0775 22.6901 13.4202 23.6885 13.2877 23.8105C13.0472 24.0318 13.0469 24.0377 13.0187 28.2394L12.9906 32.4466L9.44201 34.5062C7.00866 35.9185 5.8512 36.6493 5.75934 36.8314C5.65941 37.0294 5.62488 38.1396 5.62369 41.1949L5.62208 45.2928L3.14603 46.8419C1.78429 47.6939 0.641787 48.4367 0.607257 48.4928C0.527117 48.6227 1.14317 49.6112 1.28646 49.5826C1.34541 49.5709 2.51448 48.8574 3.88428 47.9973L6.37475 46.4333L9.88993 48.4796C11.8234 49.6052 13.5153 50.5537 13.6497 50.5875C13.8349 50.6341 14.76 50.1455 17.4651 48.5722C19.4293 47.4299 21.0896 46.4962 21.1549 46.4973C21.2202 46.4983 22.845 47.4128 24.7655 48.5292C26.6861 49.6457 28.3561 50.5773 28.4767 50.5994C28.6158 50.6248 30.0214 49.8701 32.3201 48.5356L35.9443 46.4316L39.4689 48.4796C41.4074 49.606 43.0995 50.5543 43.2291 50.587C43.4028 50.6307 44.42 50.0921 47.0917 48.5419L50.7187 46.4374L51.5401 46.9528C55.7661 49.6046 55.8917 49.6777 55.9778 49.534C56.0258 49.454 56.1854 49.1908 56.3326 48.9492L56.6001 48.5098L54.0258 46.9006L51.4516 45.2913L51.4477 41.1942C51.4448 38.1134 51.4101 37.0302 51.308 36.8275C51.215 36.6432 50.3055 36.0565 48.4321 34.9724C46.925 34.1005 45.3168 33.1637 44.8584 32.891L44.0247 32.395V28.2147V24.0345L43.7827 23.8096C43.6495 23.6859 41.9916 22.6864 40.0984 21.5883L36.6561 19.5918L36.6023 15.3289C36.5568 11.7268 36.5236 11.0427 36.3872 10.9158C36.2985 10.8331 34.6405 9.85515 32.7029 8.74256L29.18 6.71975V3.65982V0.600006H28.5346H27.8891V3.66241ZM25.1734 9.84846L21.866 11.7594L21.8925 15.694L21.919 19.6288L25.2269 21.5519L28.5348 23.4751L31.8425 21.55L35.1501 19.625L35.1767 15.6922L35.2033 11.7594L31.8833 9.84555C30.0574 8.79302 28.5449 7.93304 28.5221 7.93466C28.4994 7.93628 26.9924 8.79754 25.1734 9.84846ZM18.635 22.1953C17.3021 22.9786 15.8135 23.8507 15.3272 24.1331L14.4428 24.6467V28.5233V32.3998L15.4379 32.9812C15.9852 33.301 17.4858 34.1788 18.7728 34.9318C20.0596 35.6848 21.1488 36.2811 21.1931 36.257C21.2373 36.2328 22.762 35.351 24.5814 34.2974L27.8891 32.3817V28.525V24.6683L24.6311 22.7747C22.8391 21.7331 21.3022 20.8562 21.2157 20.826C21.1292 20.7959 19.9679 21.4121 18.635 22.1953ZM32.5416 22.7152L29.18 24.6681V28.5249V32.3817L32.4878 34.3038C34.3071 35.3609 35.8682 36.2231 35.9569 36.2198C36.0457 36.2164 37.5705 35.3646 39.3454 34.3267L42.5725 32.4396V28.5253V24.611L39.3454 22.7296C37.5705 21.6947 36.0699 20.8288 36.0107 20.8052C35.9515 20.7817 34.3905 21.6411 32.5416 22.7152ZM10.4036 35.5316L7.07428 37.4563V41.3685V45.2807L10.0325 46.9912C11.6595 47.9319 13.1614 48.7984 13.37 48.9166L13.7496 49.1316L17.0812 47.206L20.413 45.2803L20.4412 41.389L20.4695 37.4978L17.1603 35.5838C15.3403 34.5311 13.8246 33.6556 13.792 33.6384C13.7596 33.621 12.2348 34.4729 10.4036 35.5316ZM25.1999 35.5164L21.919 37.4218L21.8924 41.3565L21.8658 45.2913L25.2002 47.2134L28.5346 49.1356L31.8689 47.2134L35.2033 45.2913L35.1767 41.3594L35.1501 37.4275L31.8692 35.5187C30.0648 34.4689 28.5641 33.6101 28.5346 33.6104C28.505 33.6106 27.0044 34.4684 25.1999 35.5164ZM39.9866 35.5291L36.6561 37.45V41.3677V45.2856L39.6143 46.9933C41.2413 47.9326 42.7433 48.798 42.9521 48.9164L43.3317 49.1318L46.1369 47.5139C47.6798 46.6242 49.179 45.7567 49.4685 45.5862L49.9948 45.2763L50.023 41.386L50.0513 37.4957L48.9473 36.8526C48.0629 36.3372 43.607 33.7685 43.3751 33.6403C43.3431 33.6226 41.8183 34.4727 39.9866 35.5291Z" fill="#FFD963" stroke="#FFD963" stroke-width="1.2"/>
</svg>
