<svg width="50" height="50" viewBox="0 0 50 50" fill="none" xmlns="http://www.w3.org/2000/svg">
<path fill-rule="evenodd" clip-rule="evenodd" d="M14.4137 0.0863767C11.3822 0.427141 8.26254 1.72026 5.99421 3.57629C1.76798 7.03419 -0.459837 12.346 0.079591 17.6781C0.804664 24.8458 6.10225 30.6114 13.2016 31.9595C14.2285 32.1546 15.9478 32.2689 16.9211 32.2069L17.803 32.1507L17.8026 33.7234C17.8023 35.4866 17.8881 36.2448 18.2587 37.7506C19.8864 44.3652 25.5111 49.2322 32.3242 49.9213C37.4017 50.435 42.5427 48.4091 45.9482 44.5527C48.9101 41.1988 50.3659 36.7186 49.9214 32.325C49.3589 26.7644 46.0188 21.9347 41.0254 19.4615C38.5593 18.24 35.6869 17.6367 33.0959 17.7959L32.1467 17.8543L32.2045 16.9474C32.268 15.9523 32.1555 14.2391 31.9588 13.2032C30.8543 7.38754 26.7539 2.6827 21.17 0.824004C19.0421 0.115718 16.5614 -0.155109 14.4137 0.0863767ZM14.6637 3.00329C13.82 3.09749 12.6064 3.3794 11.7461 3.68115C8.25496 4.90542 5.31157 7.69788 3.93153 11.0948C2.44846 14.7457 2.62068 18.6933 4.41435 22.1614C5.98787 25.2037 8.68051 27.5174 11.8862 28.5814C13.1181 28.9903 13.931 29.157 15.1293 29.2464C18.976 29.5335 22.6758 28.1559 25.4154 25.4164C28.1549 22.677 29.5326 18.9773 29.2456 15.1308C28.6921 7.71597 22.0364 2.18056 14.6637 3.00329ZM11.4127 9.46955C10.7397 9.74605 10.4957 10.2329 10.4957 11.2995C10.4957 12.0154 10.52 12.1497 10.7077 12.47C10.9661 12.9109 11.422 13.1649 11.9553 13.1649C12.3931 13.1649 12.6918 13.0315 13.012 12.693C13.336 12.3506 13.4133 12.0761 13.4133 11.2686C13.4133 10.0347 12.9976 9.48047 12.0415 9.43963C11.7644 9.42787 11.4814 9.44129 11.4127 9.46955ZM19.2421 9.60334C18.6884 9.97645 18.5817 10.2448 18.5817 11.2641C18.5817 11.9086 18.618 12.2431 18.7067 12.4145C19.1442 13.2605 20.4452 13.4194 21.0738 12.7036C21.3766 12.3587 21.4984 11.953 21.4984 11.2893C21.4984 10.4075 21.2201 9.82549 20.66 9.53582C20.2891 9.3441 19.5764 9.37803 19.2421 9.60334ZM10.0975 18.8049C9.53905 19.08 9.16984 19.7801 9.27821 20.3579C9.41451 21.0843 10.0635 21.5468 11.7369 22.1102C14.243 22.9539 16.9388 23.0603 19.457 22.4149C20.461 22.1576 21.8569 21.6171 22.3357 21.3003C22.7595 21.0198 22.9436 20.5976 22.9006 20.0044C22.8175 18.8556 21.783 18.3552 20.624 18.903C17.8956 20.1926 14.8185 20.239 11.896 19.0346C10.9315 18.6371 10.5395 18.5871 10.0975 18.8049ZM32.6583 20.761C32.2164 20.8001 31.7724 20.8626 31.6715 20.9C31.5356 20.9502 31.4068 21.1826 31.1744 21.7968C30.6369 23.2167 29.9263 24.5193 29.0176 25.7496C28.4699 26.4912 27.0187 28.0001 26.2521 28.6252C24.9962 29.6491 23.3621 30.5851 21.803 31.1733C21.2105 31.3969 20.9481 31.5388 20.9031 31.6603C20.7595 32.0485 20.6729 33.8172 20.749 34.8067C20.847 36.0806 21.0074 36.8709 21.4205 38.1153C22.4846 41.3208 24.7983 44.0133 27.8408 45.5868C30.7037 47.0674 33.9682 47.4552 37.0392 46.6797C39.5029 46.0575 41.3494 45.0035 43.1763 43.1766C45.0033 41.3497 46.0574 39.5033 46.6796 37.0397C47.4551 33.9689 47.0673 30.7045 45.5866 27.8417C44.0131 24.7994 41.3205 22.4858 38.1148 21.4217C36.872 21.0093 36.0817 20.8486 34.8061 20.7494C33.6874 20.6624 33.778 20.6619 32.6583 20.761ZM29.3178 27.8347C28.5889 28.0544 28.2507 28.6393 28.2534 29.6751C28.2554 30.4434 28.4049 30.9001 28.7616 31.2269C29.4209 31.8313 30.5388 31.6437 30.9825 30.8542C31.14 30.5741 31.1692 30.3963 31.1692 29.7181C31.1692 29.2275 31.1248 28.8079 31.0555 28.6418C30.9105 28.2949 30.5011 27.9497 30.1038 27.8394C29.7485 27.7407 29.6321 27.74 29.3178 27.8347ZM37.3091 27.8701C36.5744 28.1408 36.3376 28.5908 36.3376 29.7165C36.3376 30.4252 36.3634 30.5742 36.5378 30.8718C36.8886 31.4704 37.6617 31.7434 38.312 31.4983C38.661 31.3667 39.079 30.9253 39.1722 30.5902C39.3139 30.0801 39.2709 29.0037 39.0932 28.6123C38.8005 27.9677 37.9758 27.6246 37.3091 27.8701ZM32.2946 35.8953C30.9745 36.066 29.1213 36.608 28.1 37.1224C27.3701 37.49 27.1469 37.7827 27.0998 38.4342C27.0538 39.0698 27.3279 39.5736 27.8599 39.8311C28.3675 40.0769 28.6517 40.0515 29.5271 39.6828C31.0236 39.0526 31.9215 38.8449 33.44 38.7782C35.159 38.7027 36.5661 38.9667 38.2333 39.6774C39.1191 40.0551 39.4081 40.0792 39.9246 39.8183C40.881 39.3351 41.0055 38.0419 40.158 37.3954C39.5209 36.9095 37.3554 36.1842 35.8943 35.9672C35.1002 35.8492 32.9784 35.8069 32.2946 35.8953Z" fill="#83E0A3"/>
</svg>
