<svg width="50" height="50" viewBox="0 0 50 50" fill="none" xmlns="http://www.w3.org/2000/svg">
<path fill-rule="evenodd" clip-rule="evenodd" d="M23.2975 0.409185C20.0396 1.49014 17.675 1.89993 14.7283 1.89399C12.707 1.88995 11.0805 1.67351 8.91886 1.12093C8.09555 0.910432 7.2244 0.738268 6.98301 0.738268C5.70177 0.738268 4.62071 1.85913 4.60469 3.20416C4.59786 3.77411 4.68153 3.98102 5.71432 5.94813C6.32861 7.1182 6.87659 8.23502 6.93204 8.42982C7.02412 8.75353 6.90336 9.02971 5.53733 11.6215C4.21409 14.1319 4.03643 14.5336 3.99487 15.1077C3.9336 15.9561 4.34705 16.8632 4.98868 17.288C5.42039 17.5739 7.60705 18.2744 9.29557 18.6679C13.2954 19.5997 18.3992 19.4219 22.3212 18.2138C22.9041 18.0343 23.4253 17.8874 23.4793 17.8874C23.5333 17.8874 23.5776 18.8205 23.5776 19.961V22.0346L22.8215 22.0363C20.0377 22.0423 17.0444 24.0296 15.9524 26.5967C14.8284 29.2393 12.3928 34.3072 12.104 34.6047C11.5722 35.1525 10.9071 35.3916 9.63744 35.4914C7.85684 35.6313 6.50884 36.0915 5.13564 37.0282C4.327 37.5798 3.23686 38.7056 2.71969 39.5232C2.18716 40.365 0.187795 44.9801 0.0572965 45.6687C-0.244474 47.2612 0.670919 48.9649 2.21091 49.6766L2.91067 50H25.0451H47.1795L47.9466 49.6077C49.3601 48.8849 50.0882 47.6129 49.9915 46.0354C49.9525 45.3993 49.7962 44.9457 48.9054 42.8825C48.333 41.5571 47.655 40.1196 47.3988 39.6881C46.8277 38.7262 45.606 37.4626 44.6527 36.8478C43.3855 36.0306 41.6521 35.4849 40.3237 35.4849C39.4175 35.4849 38.623 35.1954 38.0687 34.6631C37.6537 34.2645 37.3503 33.6936 36.0033 30.7773C33.778 25.9592 33.7318 25.867 33.1587 25.0989C31.817 23.3001 29.3606 22.0346 27.2111 22.0346H26.49L26.4893 11.7507C26.489 5.32314 26.4472 1.3173 26.3781 1.06814C26.3171 0.848897 26.1197 0.527883 25.9391 0.354823C25.431 -0.132302 24.8962 -0.121318 23.2975 0.409185Z" fill="#EA5548"/>
</svg>
