<svg width="39" height="50" viewBox="0 0 39 50" fill="none" xmlns="http://www.w3.org/2000/svg">
<path fill-rule="evenodd" clip-rule="evenodd" d="M17.6882 0.0629795C11.8659 0.852322 7.36239 5.22566 6.04341 11.3711C5.73866 12.791 5.65606 13.8978 5.65606 16.5612V19.0689H8.44343H11.2308V16.7247C11.2308 14.2261 11.3088 13.2685 11.6125 12.039C12.012 10.4215 12.7018 9.11422 13.7432 8.0012C15.5727 6.0457 18.2017 5.19329 20.9357 5.66925C24.6423 6.31437 27.1881 9.32725 27.6738 13.6434C27.7254 14.1024 27.768 15.5109 27.7685 16.7735L27.7692 19.0689H30.5566H33.3439V16.621C33.3439 13.8559 33.2537 12.7183 32.9134 11.193C31.6323 5.45065 27.5058 1.25863 22.0845 0.192079C21.1649 0.0112286 18.6211 -0.063523 17.6882 0.0629795ZM6.72455 22.9333C3.43378 23.2332 0.775555 25.5846 0.13065 28.7663C-0.000356249 29.413 -0.0150377 30.3882 0.0103274 36.7829C0.0428468 44.9731 -0.000913993 44.4439 0.773789 46.0109C1.50259 47.485 2.55232 48.533 4.03009 49.2618C5.6489 50.06 4.36578 49.9989 19.5 49.9989C34.5008 49.9989 33.3262 50.0493 34.8305 49.3415C36.3237 48.6388 37.4925 47.4923 38.2257 46.0109C39.0009 44.4448 38.9572 44.9737 38.9897 36.7829C39.015 30.3882 39.0004 29.413 38.8694 28.7663C38.3095 26.0041 36.3286 23.9311 33.4833 23.13L32.74 22.9208L19.9181 22.9101C12.8661 22.9043 6.92896 22.9147 6.72455 22.9333ZM18.3019 28.6697C16.7302 29.1098 15.4548 30.461 15.1275 32.0327C14.9779 32.7517 15.0651 33.9187 15.3185 34.5871C15.6166 35.3736 16.2786 36.193 17.0146 36.6865L17.6418 37.1071V40.0837C17.6418 43.0211 17.6446 43.0658 17.8581 43.4691C18.5305 44.74 20.4695 44.74 21.1419 43.4691C21.3554 43.0658 21.3582 43.0211 21.3582 40.0837V37.1071L21.9854 36.6865C22.7142 36.1978 23.3746 35.3847 23.6908 34.5871C23.9989 33.8098 24.0013 32.1567 23.6955 31.386C23.2496 30.2627 22.206 29.2227 21.1021 28.8019C20.4023 28.535 19.0165 28.4696 18.3019 28.6697Z" fill="#EA5548"/>
</svg>
