<svg width="39" height="50" viewBox="0 0 39 50" fill="none" xmlns="http://www.w3.org/2000/svg">
<path fill-rule="evenodd" clip-rule="evenodd" d="M26.7656 0.0589025C24.3091 0.881389 22.9395 4.50926 22.7613 10.6653L22.7053 12.5984L24.2085 11.5823C26.0271 10.3531 26.919 9.64945 27.9883 8.60066C29.6847 6.93661 30.5654 5.45217 30.752 3.94216C30.9317 2.48801 30.0501 0.776992 28.8528 0.25621C28.3432 0.0346327 27.1696 -0.0763413 26.7656 0.0589025ZM26.7781 2.46671C26.1234 3.12866 25.5694 4.64524 25.2171 6.7405C24.9977 8.04514 24.9521 8.40789 25.0074 8.40789C25.1223 8.40789 26.3645 7.3026 26.9617 6.66899C28.4521 5.08766 28.9674 3.80117 28.5144 2.79277C28.2944 2.30293 28.0134 2.10887 27.524 2.10887C27.1913 2.10887 27.0787 2.16287 26.7781 2.46671ZM35.3786 10.1837C34.7753 10.2814 33.9536 10.6566 33.1632 11.1951C32.0032 11.9858 30.0562 14.1437 28.7829 16.0501C28.1511 16.9962 27.0186 18.8841 27.0586 18.9247C27.1076 18.9741 29.8516 18.8005 30.8888 18.6823C34.095 18.3168 36.4138 17.4559 37.7232 16.1447C38.4632 15.4037 38.8031 14.7694 38.9466 13.8618C39.125 12.7328 38.8575 11.8235 38.131 11.0891C37.3618 10.3114 36.4474 10.0106 35.3786 10.1837ZM35.3554 12.3465C34.7759 12.5616 33.9963 13.1406 33.1747 13.9659C32.4377 14.7063 31.0721 16.3412 31.0721 16.4832C31.0721 16.6463 33.6114 16.0823 34.5448 15.712C35.9076 15.1715 36.7727 14.3749 36.8954 13.548C36.9745 13.0146 36.823 12.6352 36.4336 12.3919C36.0907 12.1777 35.8388 12.1671 35.3554 12.3465ZM13.8461 15.1287C12.2928 15.4654 10.9246 16.1935 9.79428 17.2849C8.52147 18.5138 7.72156 19.8897 7.3283 21.5268C7.04077 22.7234 7.05745 24.3451 7.36971 25.5576C8.15084 28.5912 10.4578 30.9262 13.4601 31.7217C14.6616 32.0401 16.26 32.0568 17.4541 31.7637C20.4501 31.0281 22.788 28.7479 23.6568 25.7141C23.9362 24.7386 24.0011 22.8767 23.792 21.8335C23.1218 18.4899 20.4931 15.8101 17.2172 15.1312C16.3515 14.9517 14.6678 14.9505 13.8461 15.1287ZM4.00532 34.4927C2.27457 34.9161 0.860202 36.2604 0.262514 38.0504C0.065606 38.6399 0.0607498 38.7716 0.0306959 44.3262L0 50H15.4902H30.9804V44.3542V38.7083L30.7534 37.9857C30.2081 36.2499 28.7752 34.9031 27.031 34.4874C26.1775 34.2841 4.8384 34.2889 4.00532 34.4927Z" fill="#EA5548"/>
</svg>
