<svg width="396" height="100" viewBox="0 0 396 100" fill="none" xmlns="http://www.w3.org/2000/svg">
<rect x="0.5" y="0.5" width="59" height="99" rx="4.5" stroke="#9747FF" stroke-dasharray="10 5"/>
<path d="M39.665 29.9613L30.2629 20.1163C30.1185 19.9612 29.8815 19.9612 29.7371 20.1163L20.3349 29.9613C20.0054 30.3064 19.9091 30.8027 20.0905 31.2525C20.2683 31.7061 20.6682 31.9853 21.1385 31.9853H22.5012V38.0109C22.5012 39.1082 23.353 40 24.4009 40H27.3264C27.5301 40 27.6967 39.8255 27.6967 39.6123V34.8119C27.6967 34.1449 28.2151 33.6021 28.8558 33.6021H31.1443C31.7849 33.6021 32.3033 34.1449 32.3033 34.8119V39.6123C32.3033 39.8255 32.47 40 32.6736 40H35.5991C36.6471 40 37.4988 39.1082 37.4988 38.0109V31.9853H38.8615C39.3318 31.9853 39.7317 31.7061 39.9095 31.2525C40.0909 30.8027 39.9946 30.3064 39.665 29.9613Z" stroke="#46602C" stroke-width="2" stroke-linejoin="round"/>
<path d="M39.665 69.9613L30.2629 60.1163C30.1185 59.9612 29.8815 59.9612 29.7371 60.1163L20.3349 69.9613C20.0054 70.3064 19.9091 70.8027 20.0905 71.2525C20.2683 71.7061 20.6682 71.9853 21.1385 71.9853H22.5012V78.0109C22.5012 79.1082 23.353 80 24.4009 80H27.3264C27.5301 80 27.6967 79.8255 27.6967 79.6123V74.8119C27.6967 74.1449 28.2151 73.6021 28.8558 73.6021H31.1442C31.7849 73.6021 32.3033 74.1449 32.3033 74.8119V79.6123C32.3033 79.8255 32.4699 80 32.6736 80H35.5991C36.6471 80 37.4988 79.1082 37.4988 78.0109V71.9853H38.8615C39.3318 71.9853 39.7317 71.7061 39.9095 71.2525C40.0909 70.8027 39.9946 70.3064 39.665 69.9613Z" fill="#46602C"/>
<rect x="70.5" y="0.5" width="59" height="99" rx="4.5" stroke="#9747FF" stroke-dasharray="10 5"/>
<path d="M93.3703 20C91.5186 20 90 21.5229 90 23.3741V36.6305C90 38.4817 91.5186 40 93.3703 40H106.63C108.481 40 110 38.4817 110 36.6305V23.3741C110 21.5229 108.481 20 106.63 20H93.3703ZM93.3703 21.8197H106.63C107.505 21.8197 108.184 22.4986 108.184 23.3741V36.6305C108.184 37.5059 107.505 38.1848 106.63 38.1848H93.3703C92.4946 38.1848 91.8156 37.5059 91.8156 36.6305V23.3741C91.8156 22.4986 92.4946 21.8197 93.3703 21.8197ZM97.4978 24.701C97.2761 24.7152 97.0672 24.81 96.9107 24.9675L95.2169 26.6782L94.8951 26.3002C94.7396 26.116 94.5172 26.0012 94.2769 25.9809C94.0366 25.9607 93.7981 26.0367 93.6139 26.1922C93.4297 26.3477 93.3148 26.5701 93.2946 26.8103C93.2743 27.0505 93.3503 27.2889 93.5059 27.4731L94.47 28.6105C94.5515 28.7063 94.652 28.7841 94.7652 28.8391C94.8784 28.894 95.0017 28.9249 95.1274 28.9298C95.2531 28.9346 95.3785 28.9134 95.4955 28.8673C95.6126 28.8212 95.7188 28.7514 95.8075 28.6622L98.1999 26.2485C98.3698 26.0774 98.4648 25.8458 98.4639 25.6047C98.463 25.3637 98.3664 25.1328 98.1952 24.963C98.1041 24.8725 97.9948 24.8024 97.8746 24.7573C97.7543 24.7121 97.626 24.693 97.4978 24.701ZM100.15 26.0176C100.03 26.0173 99.9114 26.0407 99.8007 26.0865C99.6899 26.1323 99.5893 26.1995 99.5046 26.2842C99.4199 26.369 99.3529 26.4697 99.3072 26.5805C99.2616 26.6912 99.2383 26.8099 99.2387 26.9297C99.2389 27.0492 99.2626 27.1674 99.3085 27.2776C99.3545 27.3879 99.4216 27.488 99.5063 27.5723C99.5909 27.6566 99.6913 27.7234 99.8017 27.7688C99.9122 27.8143 100.031 27.8376 100.15 27.8373H105.8C106.041 27.8369 106.271 27.7412 106.442 27.5711C106.612 27.401 106.707 27.1703 106.708 26.9297C106.708 26.8102 106.685 26.6918 106.64 26.5813C106.594 26.4707 106.527 26.3702 106.443 26.2855C106.359 26.2007 106.259 26.1335 106.148 26.0875C106.038 26.0415 105.92 26.0178 105.8 26.0176H100.15ZM97.6059 31.0724C97.4776 31.0656 97.3493 31.086 97.2294 31.1323C97.1096 31.1787 97.001 31.2499 96.9107 31.3413L95.2169 33.0519L94.8951 32.6705C94.7391 32.4868 94.5164 32.3726 94.2762 32.353C94.0359 32.3334 93.7977 32.41 93.6139 32.5659C93.4297 32.7215 93.3148 32.9438 93.2946 33.184C93.2743 33.4243 93.3503 33.6627 93.5059 33.8469L94.47 34.9796C94.5511 35.0758 94.6513 35.1541 94.7642 35.2096C94.8772 35.265 95.0004 35.2965 95.1261 35.3019C95.2519 35.3073 95.3773 35.2865 95.4946 35.2409C95.6119 35.1954 95.7185 35.126 95.8075 35.0371L98.1999 32.6176C98.3695 32.4466 98.4642 32.2153 98.4633 31.9745C98.4624 31.7337 98.366 31.5031 98.1952 31.3332C98.0372 31.1773 97.8276 31.0845 97.6059 31.0724ZM100.15 32.3924C100.031 32.3922 99.9122 32.4154 99.8017 32.4609C99.6913 32.5064 99.5909 32.5732 99.5063 32.6575C99.4216 32.7418 99.3545 32.8419 99.3085 32.9521C99.2626 33.0624 99.2389 33.1806 99.2387 33.3C99.2389 33.4194 99.2626 33.5376 99.3085 33.6479C99.3545 33.7581 99.4216 33.8583 99.5063 33.9426C99.5909 34.0268 99.6913 34.0936 99.8017 34.1391C99.9122 34.1846 100.031 34.2079 100.15 34.2076H105.8C106.041 34.2072 106.271 34.1115 106.442 33.9413C106.612 33.7712 106.707 33.5406 106.708 33.3C106.707 33.0594 106.612 32.8288 106.442 32.6587C106.271 32.4886 106.041 32.3928 105.8 32.3924H100.15Z" fill="#46602C"/>
<rect x="90" y="60" width="20" height="20" rx="3" fill="#46602C"/>
<path d="M96.6193 65.2683C96.7759 65.1107 96.9848 65.0159 97.2065 65.0018C97.3347 64.9937 97.463 65.0129 97.5832 65.0581C97.7034 65.1032 97.8127 65.1733 97.9039 65.2637C98.075 65.4336 98.1717 65.6644 98.1725 65.9055C98.1734 66.1466 98.0785 66.3782 97.9086 66.5493L95.5162 68.9629C95.4275 69.0522 95.3213 69.122 95.2042 69.1681C95.0871 69.2141 94.9618 69.2354 94.8361 69.2305C94.7103 69.2257 94.587 69.1948 94.4738 69.1398C94.3607 69.0849 94.2602 69.007 94.1786 68.9113L93.2145 67.7739C93.059 67.5897 92.983 67.3513 93.0032 67.1111C93.0235 66.8709 93.1383 66.6485 93.3226 66.493C93.5068 66.3374 93.7453 66.2614 93.9855 66.2817C94.2258 66.302 94.4482 66.4168 94.6038 66.601L94.9255 66.9789L96.6193 65.2683Z" fill="white"/>
<path d="M99.5093 66.3873C99.6201 66.3415 99.7388 66.3181 99.8586 66.3184H105.509C105.628 66.3185 105.747 66.3423 105.857 66.3883C105.967 66.4342 106.067 66.5015 106.152 66.5862C106.236 66.671 106.303 66.7715 106.348 66.882C106.394 66.9926 106.417 67.111 106.416 67.2305C106.416 67.4711 106.32 67.7017 106.15 67.8719C105.98 68.042 105.749 68.1377 105.509 68.1381H99.8586C99.7392 68.1384 99.6208 68.1151 99.5104 68.0696C99.3999 68.0241 99.2995 67.9574 99.2149 67.8731C99.1303 67.7888 99.0631 67.6887 99.0172 67.5784C98.9713 67.4682 98.9476 67.3499 98.9474 67.2305C98.947 67.1107 98.9702 66.992 99.0159 66.8812C99.0615 66.7705 99.1286 66.6698 99.2133 66.585C99.298 66.5002 99.3986 66.433 99.5093 66.3873Z" fill="white"/>
<path d="M96.9381 71.4331C97.0579 71.3868 97.1862 71.3664 97.3145 71.3732C97.5363 71.3852 97.7458 71.478 97.9039 71.634C98.0747 71.8038 98.1711 72.0344 98.172 72.2752C98.1728 72.5161 98.0781 72.7474 97.9086 72.9184L95.5162 75.3379C95.4271 75.4267 95.3206 75.4961 95.2033 75.5417C95.086 75.5873 94.9605 75.608 94.8348 75.6026C94.7091 75.5972 94.5858 75.5658 94.4729 75.5103C94.3599 75.4549 94.2597 75.3766 94.1786 75.2804L93.2145 74.1476C93.059 73.9635 92.983 73.725 93.0032 73.4848C93.0235 73.2446 93.1383 73.0223 93.3226 72.8667C93.5064 72.7108 93.7446 72.6342 93.9848 72.6538C94.2251 72.6734 94.4477 72.7876 94.6038 72.9712L94.9255 73.3526L96.6193 71.642C96.7096 71.5507 96.8183 71.4795 96.9381 71.4331Z" fill="white"/>
<path d="M99.5104 72.7617C99.6208 72.7162 99.7392 72.693 99.8586 72.6932H105.509C105.749 72.6936 105.98 72.7893 106.15 72.9595C106.32 73.1296 106.416 73.3602 106.416 73.6008C106.416 73.8414 106.32 74.072 106.15 74.2421C105.98 74.4122 105.749 74.508 105.509 74.5084H99.8586C99.7392 74.5086 99.6208 74.4854 99.5104 74.4399C99.3999 74.3944 99.2995 74.3276 99.2149 74.2433C99.1303 74.1591 99.0631 74.0589 99.0172 73.9487C98.9713 73.8384 98.9476 73.7202 98.9474 73.6008C98.9476 73.4814 98.9713 73.3632 99.0172 73.2529C99.0631 73.1427 99.1303 73.0425 99.2149 72.9582C99.2995 72.874 99.3999 72.8072 99.5104 72.7617Z" fill="white"/>
<rect x="140.5" y="0.5" width="59" height="99" rx="4.5" stroke="#9747FF" stroke-dasharray="10 5"/>
<path d="M180 20.3333C180 20.15 179.8 20 179.555 20C175.069 20 171.264 22.2268 170 25.28C168.736 22.2268 164.931 20 160.445 20C160.2 20 160 20.15 160 20.3333C160 24.3534 164.246 27.64 169.555 27.8167V29.8667H163.979C162.906 29.8667 162.029 30.52 162.029 31.3267C162.029 32.0633 162.764 32.67 163.712 32.7667L164.762 38.73C164.887 39.4533 165.719 40 166.693 40C167.508 40 168.202 39.5833 168.38 38.9867L168.438 38.7933C168.518 38.53 168.821 38.3467 169.181 38.3467H170.819C171.179 38.3467 171.482 38.53 171.562 38.7933L171.62 38.9867C171.798 39.5833 172.492 40 173.307 40C174.281 40 175.113 39.4533 175.238 38.73L176.284 32.7667C177.236 32.67 177.971 32.0633 177.971 31.3267C177.971 30.52 177.094 29.8667 176.021 29.8667H170.445V27.8167C175.754 27.64 180 24.3534 180 20.3333Z" stroke="#46602C" stroke-width="2" stroke-linejoin="round"/>
<path d="M180 60.3333C180 60.15 179.8 60 179.555 60C175.069 60 171.264 62.2268 170 65.28C168.736 62.2268 164.931 60 160.445 60C160.2 60 160 60.15 160 60.3333C160 64.3534 164.246 67.64 169.555 67.8167V69.8667H163.979C162.906 69.8667 162.029 70.52 162.029 71.3267C162.029 72.0633 162.764 72.67 163.712 72.7667L164.762 78.73C164.887 79.4533 165.719 80 166.693 80C167.508 80 168.202 79.5833 168.38 78.9867L168.438 78.7933C168.518 78.53 168.821 78.3467 169.181 78.3467H170.819C171.179 78.3467 171.482 78.53 171.562 78.7933L171.62 78.9867C171.798 79.5833 172.492 80 173.307 80C174.281 80 175.113 79.4533 175.238 78.73L176.284 72.7667C177.236 72.67 177.971 72.0633 177.971 71.3267C177.971 70.52 177.094 69.8667 176.021 69.8667H170.445V67.8167C175.754 67.64 180 64.3534 180 60.3333Z" fill="#46602C"/>
<rect x="210.5" y="0.5" width="59" height="99" rx="4.5" stroke="#9747FF" stroke-dasharray="10 5"/>
<path d="M249.231 39.9998H230.769C230.346 39.9998 230 39.6726 230 39.2726C230 34.0581 234.485 29.8181 240 29.8181C245.515 29.8181 250 34.0581 250 39.2726C250 39.6726 249.654 39.9998 249.231 39.9998ZM231.569 38.5453H248.423C248.031 34.4726 244.4 31.2726 239.992 31.2726C235.585 31.2726 231.962 34.4726 231.569 38.5453Z" fill="#46602C" stroke="#46602C" stroke-width="0.5"/>
<path d="M240 28.7272C237.454 28.7272 235.385 26.7709 235.385 24.3636C235.385 21.9563 237.454 20 240 20C242.546 20 244.615 21.9563 244.615 24.3636C244.615 26.7709 242.546 28.7272 240 28.7272ZM240 21.4545C238.3 21.4545 236.923 22.7564 236.923 24.3636C236.923 25.9709 238.3 27.2727 240 27.2727C241.7 27.2727 243.077 25.9709 243.077 24.3636C243.077 22.7564 241.7 21.4545 240 21.4545Z" fill="#46602C" stroke="#46602C" stroke-width="0.5"/>
<path d="M249.231 79.9998H230.769C230.346 79.9998 230 79.6726 230 79.2726C230 74.0581 234.485 69.8181 240 69.8181C245.515 69.8181 250 74.0581 250 79.2726C250 79.6726 249.654 79.9998 249.231 79.9998Z" fill="#46602C"/>
<path d="M240 68.7272C237.454 68.7272 235.385 66.7709 235.385 64.3636C235.385 61.9563 237.454 60 240 60C242.546 60 244.615 61.9563 244.615 64.3636C244.615 66.7709 242.546 68.7272 240 68.7272Z" fill="#46602C"/>
<path d="M298.332 15.5C298.207 15.5 298.08 15.4717 297.961 15.4125L294.628 13.7458C294.345 13.6042 294.167 13.3158 294.167 13V7.16667C294.167 6.70667 294.54 6.33333 295 6.33333C295.46 6.33333 295.833 6.70667 295.833 7.16667V12.485L298.706 13.9217C299.118 14.1275 299.284 14.6283 299.078 15.04C298.932 15.3317 298.638 15.5 298.332 15.5ZM295 23C289.486 23 285 18.5142 285 13C285 7.48583 289.486 3 295 3C300.514 3 305 7.48583 305 13C305 18.5142 300.514 23 295 23ZM295 4.66667C290.405 4.66667 286.667 8.405 286.667 13C286.667 17.595 290.405 21.3333 295 21.3333C299.595 21.3333 303.333 17.595 303.333 13C303.333 8.405 299.595 4.66667 295 4.66667Z" fill="#46602C"/>
<path d="M298.09 52.3602C297.98 52.3602 297.869 52.3354 297.764 52.2835L294.842 50.8225C294.594 50.6983 294.438 50.4455 294.438 50.1687V45.0552C294.438 44.6519 294.765 44.3247 295.169 44.3247C295.572 44.3247 295.899 44.6519 295.899 45.0552V49.7172L298.417 50.9766C298.778 51.1571 298.924 51.5961 298.744 51.957C298.616 52.2126 298.358 52.3602 298.09 52.3602ZM295.169 58.9347C290.335 58.9347 286.403 55.0024 286.403 50.1687C286.403 45.335 290.335 41.4027 295.169 41.4027C300.002 41.4027 303.935 45.335 303.935 50.1687C303.935 55.0024 300.002 58.9347 295.169 58.9347ZM295.169 42.8637C291.141 42.8637 287.864 46.1407 287.864 50.1687C287.864 54.1967 291.141 57.4737 295.169 57.4737C299.197 57.4737 302.474 54.1967 302.474 50.1687C302.474 46.1407 299.197 42.8637 295.169 42.8637Z" fill="#46602C"/>
<line x1="301.135" y1="39.293" x2="305.707" y2="43.8648" stroke="#46602C" stroke-width="2"/>
<line x1="284.293" y1="43.8647" x2="288.865" y2="39.2929" stroke="#46602C" stroke-width="2"/>
<circle cx="295" cy="85.9347" r="9" stroke="#46602C" stroke-width="2"/>
<path d="M295.433 90.1847C295.241 90.5181 294.759 90.5181 294.567 90.1847L291.103 84.1847C290.91 83.8514 291.151 83.4347 291.536 83.4347H298.464C298.849 83.4347 299.09 83.8514 298.897 84.1847L295.433 90.1847Z" fill="#46602C"/>
<path d="M330.293 10.7064C329.902 10.3165 329.902 9.68277 330.293 9.29279L331.586 8.00007H320.001C318.343 8.00007 317.001 9.34249 317.001 10.9999V12.9994C317.001 13.5516 316.553 13.9997 316.001 13.9997C315.449 13.9997 315 13.5516 315 12.9994V10.9999C315 8.23813 317.239 5.99956 320.001 5.99956H331.586L330.293 4.70683C329.902 4.31686 329.902 3.68316 330.293 3.29318C330.683 2.90227 331.317 2.90227 331.707 3.29318L334.701 6.28747C334.721 6.30622 334.739 6.32684 334.757 6.34746C334.824 6.42433 334.876 6.50777 334.915 6.59683C334.969 6.71964 334.999 6.85462 335 6.99712V6.99994V7.00931C334.998 7.13399 334.975 7.25304 334.932 7.36274C334.883 7.48835 334.808 7.60553 334.707 7.70678L331.707 10.7066C331.317 11.0975 330.683 11.0974 330.293 10.7064Z" fill="#46602C"/>
<path d="M315.068 18.6367C315.024 18.7492 315 18.8711 315 18.9995C315 19.2489 315.092 19.4767 315.243 19.652C315.261 19.6726 315.279 19.6932 315.299 19.712L318.293 22.7063C318.683 23.0972 319.317 23.0972 319.707 22.7063C320.098 22.3163 320.098 21.6826 319.707 21.2926L318.414 19.9999H329.999C332.761 19.9999 335 17.7613 335 14.9996V13C335 12.4479 334.551 11.9998 333.999 11.9998C333.447 11.9998 332.999 12.4479 332.999 13V14.9996C332.999 16.657 331.657 17.9994 329.999 17.9994H318.414L319.707 16.7067C320.098 16.3167 320.098 15.683 319.707 15.293C319.317 14.9021 318.683 14.9021 318.293 15.293L315.294 18.2928C315.192 18.3941 315.117 18.5111 315.068 18.6367Z" fill="#46602C"/>
<path fill-rule="evenodd" clip-rule="evenodd" d="M317.643 44.399H322.218C322.696 44.399 323.076 44.7814 323.075 45.2592C323.073 45.7304 322.689 46.1136 322.218 46.1136H317.643C317.133 46.1136 316.715 46.5322 316.715 47.0421V57.3565C316.715 57.8672 317.133 58.285 317.643 58.285H327.957C328.468 58.285 328.885 57.8672 328.885 57.3565V52.6416C328.885 52.1638 329.268 51.7839 329.744 51.7847C330.215 51.7855 330.599 52.1704 330.599 52.6416V57.3565C330.599 58.8138 329.413 59.9997 327.956 59.9997H317.643C316.186 59.9997 315 58.8138 315 57.3565V47.0421C315 45.5848 316.186 44.399 317.643 44.399ZM329.716 43.1539L331.856 45.2863L332.802 44.3365C333.413 43.7213 333.471 42.741 332.876 42.1457C332.461 41.7304 331.889 41.6111 331.335 41.7904C331.094 41.8685 330.863 42.0067 330.666 42.2041L329.716 43.1539ZM330.649 46.4977L328.507 44.3619L323.198 49.6721C322.563 50.307 322.164 50.974 321.917 51.8267L321.397 53.6236L323.185 53.1064C324.04 52.8588 324.722 52.4501 325.352 51.8169L330.649 46.4967L330.649 46.4977ZM320.939 49.7972C320.657 50.2717 320.441 50.7824 320.277 51.3515L319.327 54.6368C319.139 55.2832 319.74 55.8852 320.393 55.6928L323.661 54.7479C324.809 54.4156 325.721 53.8695 326.564 53.0233L334.013 45.5421C334.656 44.8957 334.982 44.0651 334.999 43.2426C335.026 42.0304 334.382 40.9144 333.299 40.352C332.039 39.6958 330.463 39.982 329.452 40.9919L321.985 48.4601C321.568 48.877 321.223 49.3162 320.938 49.7973L320.939 49.7972Z" fill="#46602C"/>
<rect x="316" y="79.9045" width="18" height="15.1429" rx="2" stroke="#46602C" stroke-width="2"/>
<line x1="334.048" y1="84.4164" x2="315.952" y2="84.4164" stroke="#46602C" stroke-width="1.5"/>
<line x1="320.762" y1="77.9997" x2="320.762" y2="78.8569" stroke="#46602C" stroke-width="2" stroke-linecap="round"/>
<line x1="319.56" y1="86.7259" x2="320.917" y2="86.7259" stroke="#46602C" stroke-width="1.5" stroke-linecap="round"/>
<line x1="324.321" y1="86.7259" x2="325.679" y2="86.7259" stroke="#46602C" stroke-width="1.5" stroke-linecap="round"/>
<line x1="329.083" y1="86.7259" x2="330.44" y2="86.7259" stroke="#46602C" stroke-width="1.5" stroke-linecap="round"/>
<line x1="319.56" y1="89.5831" x2="320.917" y2="89.5831" stroke="#46602C" stroke-width="1.5" stroke-linecap="round"/>
<line x1="324.321" y1="89.5831" x2="325.679" y2="89.5831" stroke="#46602C" stroke-width="1.5" stroke-linecap="round"/>
<line x1="329.083" y1="89.5831" x2="330.44" y2="89.5831" stroke="#46602C" stroke-width="1.5" stroke-linecap="round"/>
<line x1="319.56" y1="92.4402" x2="320.917" y2="92.4402" stroke="#46602C" stroke-width="1.5" stroke-linecap="round"/>
<line x1="324.321" y1="92.4402" x2="325.679" y2="92.4402" stroke="#46602C" stroke-width="1.5" stroke-linecap="round"/>
<line x1="329.083" y1="92.4402" x2="330.44" y2="92.4402" stroke="#46602C" stroke-width="1.5" stroke-linecap="round"/>
<line x1="329.333" y1="77.9997" x2="329.333" y2="78.8569" stroke="#46602C" stroke-width="2" stroke-linecap="round"/>
<path d="M362.005 3.11749H347.973C346.333 3.11749 345 4.45082 345 6.09016V15.8825C345 17.5219 346.333 18.8552 347.973 18.8552H351.295C351.295 19.7076 351.142 20.8443 350.683 22.0464C350.464 22.571 350.617 23.1612 351.055 23.5546C351.317 23.7732 351.623 23.8825 351.951 23.8825C352.169 23.8825 352.41 23.8169 352.628 23.7076C354.88 22.418 356.781 20.2104 357.809 18.8552H362.027C363.667 18.8552 365 17.5219 365 15.8825V6.09016C364.978 4.45082 363.645 3.11749 362.005 3.11749ZM363.907 15.8825C363.907 16.9317 363.055 17.7842 362.005 17.7842H357.525C357.35 17.7842 357.197 17.8716 357.087 18.0027C356.169 19.2486 354.29 21.5219 352.082 22.7678C351.929 22.8552 351.798 22.7678 351.754 22.724C351.71 22.6803 351.601 22.571 351.667 22.418C352.301 20.7787 352.388 19.2705 352.344 18.2869C352.322 18.0027 352.104 17.7842 351.798 17.7842H347.973C346.923 17.7842 346.071 16.9317 346.071 15.8825V6.09016C346.071 5.04098 346.923 4.18852 347.973 4.18852H362.005C363.055 4.18852 363.907 5.04098 363.907 6.09016V15.8825Z" fill="#46602C" stroke="#46602C" stroke-width="0.2"/>
<path d="M354.989 5.36885C351.798 5.36885 349.219 7.96994 349.219 11.1393C349.219 14.3306 351.82 16.9098 354.989 16.9098C358.18 16.9098 360.76 14.3087 360.76 11.1393C360.76 7.96994 358.18 5.36885 354.989 5.36885ZM352.934 6.68033C352.65 7.09563 352.41 7.59836 352.235 8.16667C351.929 8.07923 351.623 7.9918 351.339 7.88251C351.776 7.35792 352.322 6.96448 352.934 6.68033ZM350.814 8.56011C351.186 8.71311 351.601 8.86612 352.016 8.97541C351.907 9.52186 351.82 10.112 351.798 10.724H350.093C350.158 9.93716 350.399 9.19399 350.814 8.56011ZM350.814 13.7404C350.421 13.1066 350.158 12.3634 350.093 11.5765H351.798C351.82 12.1885 351.907 12.7787 352.016 13.3251C351.601 13.4344 351.186 13.5656 350.814 13.7404ZM351.339 14.4399C351.623 14.3306 351.929 14.2213 352.235 14.1339C352.432 14.7022 352.65 15.2049 352.934 15.6202C352.322 15.3361 351.776 14.9426 351.339 14.4399ZM354.552 15.9699C353.984 15.7295 353.415 15.0082 353.066 13.959C353.546 13.8716 354.049 13.8279 354.552 13.806V15.9699ZM354.552 12.9536C353.962 12.9754 353.393 13.041 352.825 13.1503C352.716 12.6694 352.65 12.1448 352.628 11.5984H354.552V12.9536ZM354.552 10.724H352.65C352.672 10.1557 352.738 9.63115 352.847 9.17213C353.393 9.28142 353.984 9.34699 354.574 9.36885V10.724H354.552ZM354.552 8.49453C354.027 8.47268 353.546 8.42896 353.066 8.34153C353.437 7.29235 353.984 6.57104 354.552 6.3306V8.49453ZM358.639 7.86065C358.355 7.96994 358.049 8.07923 357.743 8.16667C357.546 7.59836 357.328 7.09563 357.044 6.68033C357.656 6.96448 358.202 7.35792 358.639 7.86065ZM355.426 6.30874C355.995 6.54918 356.563 7.27049 356.913 8.31967C356.432 8.4071 355.929 8.45082 355.426 8.47268V6.30874ZM355.426 9.34699C356.016 9.32514 356.585 9.25956 357.153 9.15027C357.262 9.63115 357.328 10.1557 357.35 10.7022H355.426V9.34699ZM355.426 11.5765H357.328C357.306 12.1448 357.24 12.6694 357.131 13.1284C356.585 13.0191 355.995 12.9536 355.404 12.9317V11.5765H355.426ZM355.426 15.9699V13.7842C355.951 13.806 356.432 13.8497 356.913 13.9372C356.541 15.0082 355.995 15.7295 355.426 15.9699ZM357.044 15.6202C357.328 15.2049 357.568 14.7022 357.743 14.1339C358.049 14.2213 358.355 14.3087 358.639 14.4399C358.202 14.9426 357.656 15.3361 357.044 15.6202ZM359.164 13.7404C358.77 13.5874 358.377 13.4344 357.962 13.3251C358.071 12.7787 358.158 12.1885 358.18 11.5765H359.885C359.82 12.3634 359.579 13.1066 359.164 13.7404ZM359.885 10.724H358.18C358.158 10.112 358.071 9.52186 357.962 8.97541C358.377 8.86612 358.792 8.71311 359.164 8.56011C359.579 9.19399 359.82 9.93716 359.885 10.724Z" fill="#46602C" stroke="#46602C" stroke-width="0.2"/>
<line x1="345.75" y1="42.1325" x2="364.25" y2="42.1325" stroke="#46602C" stroke-width="1.5" stroke-linecap="round"/>
<mask id="path-41-inside-1_234_838" fill="white">
<rect x="357" y="38.8825" width="6" height="6" rx="1"/>
</mask>
<rect x="357" y="38.8825" width="6" height="6" rx="1" fill="#F9F9F9" stroke="#46602C" stroke-width="3" mask="url(#path-41-inside-1_234_838)"/>
<line x1="345.75" y1="50.1325" x2="364.25" y2="50.1325" stroke="#46602C" stroke-width="1.5" stroke-linecap="round"/>
<mask id="path-43-inside-2_234_838" fill="white">
<rect x="353" y="46.8825" width="6" height="6" rx="1"/>
</mask>
<rect x="353" y="46.8825" width="6" height="6" rx="1" fill="#F9F9F9" stroke="#46602C" stroke-width="3" mask="url(#path-43-inside-2_234_838)"/>
<line x1="345.75" y1="58.1325" x2="364.25" y2="58.1325" stroke="#46602C" stroke-width="1.5" stroke-linecap="round"/>
<mask id="path-45-inside-3_234_838" fill="white">
<rect x="350" y="54.8825" width="6" height="6" rx="1"/>
</mask>
<rect x="350" y="54.8825" width="6" height="6" rx="1" fill="#F9F9F9" stroke="#46602C" stroke-width="3" mask="url(#path-45-inside-3_234_838)"/>
<path d="M354.997 73.7829C355.176 73.7829 355.358 73.8405 355.497 73.9606C355.638 74.0826 355.729 74.2639 355.729 74.4968V75.7819C359.934 76.1501 363.235 79.6492 363.235 83.8522L363.234 89.0475C363.927 89.3772 364.433 89.7624 364.742 90.1794C365.062 90.6105 365.171 91.0769 365.055 91.5397C364.939 91.9989 364.604 92.44 364.067 92.8356C363.53 93.2318 362.783 93.5879 361.829 93.8747C360.752 94.1986 359.435 94.4443 357.971 94.5886C357.498 96.8823 354.584 97.8108 352.85 96.1052C352.436 95.6975 352.141 95.1732 352.02 94.5886C350.883 94.4758 349.143 94.2159 347.671 93.7077C346.919 93.4482 346.231 93.1216 345.729 92.7126C345.226 92.3029 344.9 91.8021 344.9 91.197C344.9 90.6671 345.153 90.2274 345.516 89.8708C345.862 89.53 346.314 89.2605 346.759 89.0495V83.8522C346.759 79.649 350.059 76.1492 354.265 75.7809V74.4968C354.265 74.2639 354.356 74.0826 354.497 73.9606C354.636 73.8405 354.818 73.7829 354.997 73.7829ZM353.596 94.695C354.171 95.814 355.822 95.8141 356.397 94.695H353.596ZM361.771 83.8532C361.771 78.0034 354.509 74.9248 350.213 79.1501C348.985 80.3581 348.224 82.0234 348.224 83.8532V89.6159H348.213C348.196 89.7631 348.143 89.8792 348.055 89.9743C347.952 90.0853 347.81 90.1622 347.659 90.2321C347.351 90.3749 346.973 90.5065 346.603 90.8425C346.43 90.9979 346.365 91.1184 346.365 91.1989C346.365 91.2844 346.405 91.382 346.5 91.4909C346.595 91.5998 346.739 91.7134 346.932 91.8288C347.318 92.0598 347.882 92.2882 348.587 92.4997C349.701 92.8342 351.121 93.0817 352.72 93.2048H352.719L354.998 93.2888C357.152 93.2886 359.536 93.0604 361.406 92.4997C362.111 92.2877 362.676 92.0587 363.062 91.8278C363.255 91.7123 363.399 91.5988 363.494 91.4899C363.589 91.3813 363.628 91.2843 363.628 91.1989C363.628 91.1364 363.589 91.0517 363.497 90.9489C363.408 90.849 363.281 90.7457 363.137 90.6472C362.85 90.4516 362.509 90.2849 362.292 90.2077L362.184 90.1657C361.94 90.0491 361.77 89.8024 361.77 89.5153L361.771 83.8532ZM349.118 75.6218C349.299 75.6553 349.458 75.7607 349.568 75.8991C349.679 76.0375 349.746 76.2148 349.736 76.3972C349.726 76.5821 349.638 76.7641 349.453 76.9069C348.387 77.7308 347.518 78.7826 346.922 79.9772C346.818 80.1853 346.657 80.3081 346.477 80.3561C346.299 80.4035 346.11 80.3766 345.95 80.2995C345.79 80.2224 345.652 80.0924 345.581 79.9245C345.509 79.7538 345.508 79.5514 345.612 79.3434C346.304 77.9545 347.321 76.7233 348.551 75.7722C348.735 75.6296 348.935 75.5878 349.118 75.6218ZM360.875 75.6227C361.058 75.5887 361.258 75.6295 361.442 75.7722C362.672 76.7235 363.689 77.9556 364.381 79.3434C364.484 79.5511 364.484 79.753 364.412 79.9235C364.341 80.0915 364.203 80.2223 364.043 80.2995C363.883 80.3767 363.694 80.4035 363.517 80.3561C363.336 80.3082 363.174 80.1854 363.07 79.9772C362.476 78.7839 361.604 77.7308 360.54 76.9069C360.355 76.7643 360.267 76.5821 360.257 76.3972C360.247 76.2149 360.314 76.0375 360.425 75.8991C360.535 75.7608 360.694 75.6563 360.875 75.6227Z" fill="#46602C" stroke="#46602C" stroke-width="0.2"/>
<path d="M393.948 3.01758C394.193 2.86059 394.508 2.86043 394.753 3.01758H394.752C394.966 3.15237 395.095 3.38476 395.1 3.63281L395.095 3.74023L392.621 23.0908C392.574 23.4655 392.254 23.7451 391.876 23.7422V23.7432C391.773 23.7424 391.672 23.7202 391.577 23.6797H391.574L385.482 20.9551L382.597 23.5527C382.494 23.6449 382.368 23.7059 382.234 23.7305L382.098 23.7432C382.05 23.7429 382.002 23.7379 381.955 23.7285L381.818 23.6875C381.553 23.5809 381.373 23.3319 381.354 23.0469L381.353 23.0459L381.092 18.9756L375.343 16.4199C375.093 16.3087 374.923 16.069 374.902 15.7959C374.881 15.5229 375.012 15.2604 375.242 15.1123L393.947 3.01855L393.948 3.01758ZM377.205 15.6221L381.389 17.4932L389.313 9.57227L389.318 9.56641L389.319 9.56738C389.615 9.31405 390.055 9.33132 390.33 9.60645C390.605 9.8816 390.622 10.3217 390.369 10.6172L390.364 10.623L382.857 18.1533L391.278 21.9092L393.411 5.1377L377.205 15.6221ZM382.738 21.4189L383.994 20.2881L382.625 19.6768L382.738 21.4189Z" fill="#46602C" stroke="#46602C" stroke-width="0.2" stroke-linejoin="round"/>
<path d="M393.571 47.143H391.687C391.629 46.9859 391.567 46.8314 391.497 46.6805L392.828 45.3502C393.096 45.0823 393.246 44.7189 393.246 44.3395C393.246 43.9609 393.096 43.5975 392.828 43.3296L391.313 41.8145C390.748 41.2752 389.859 41.2752 389.294 41.8145L387.962 43.143C387.812 43.0743 387.658 43.0109 387.5 42.9529V41.0716C387.5 40.693 387.349 40.3296 387.081 40.0618C386.813 39.7939 386.45 39.643 386.071 39.643H383.929C383.139 39.643 382.5 40.2823 382.5 41.0716V42.9555C382.343 43.0136 382.188 43.077 382.038 43.1457L380.707 41.8153C380.142 41.2752 379.252 41.2752 378.687 41.8153L377.171 43.3296C376.613 43.8877 376.613 44.7912 377.171 45.3493L378.5 46.6805C378.431 46.8314 378.368 46.985 378.31 47.143H376.429C375.639 47.143 375 47.7823 375 48.5716V50.7144C375 51.093 375.151 51.4564 375.419 51.7243C375.687 51.9921 376.05 52.143 376.429 52.143H378.313C378.371 52.3002 378.434 52.4546 378.503 52.6055L377.172 53.9359C376.904 54.2037 376.754 54.5671 376.754 54.9466C376.754 55.3251 376.904 55.6885 377.172 55.9564L378.687 57.4716C379.252 58.0109 380.141 58.0109 380.706 57.4716L382.038 56.143C382.188 56.2118 382.342 56.2752 382.5 56.3332V58.2144C382.5 58.593 382.651 58.9564 382.919 59.2243C383.187 59.4921 383.55 59.643 383.929 59.643H386.071C386.45 59.643 386.813 59.4921 387.081 59.2243C387.349 58.9564 387.5 58.593 387.5 58.2144V56.3305C387.657 56.2725 387.812 56.21 387.962 56.1403L389.293 57.4707C389.858 58.0109 390.748 58.0109 391.313 57.4707L392.829 55.9555C393.387 55.3984 393.387 54.4939 392.829 53.9359L391.5 52.6055C391.569 52.4546 391.632 52.3011 391.69 52.143H393.571C393.95 52.143 394.313 51.9921 394.581 51.7243C394.849 51.4564 395 51.093 395 50.7145V48.5716C395 48.193 394.849 47.8296 394.581 47.5618C394.313 47.2939 393.95 47.143 393.571 47.143ZM393.571 50.7145H391.172C390.854 50.7145 390.574 50.9252 390.486 51.2305C390.369 51.6377 390.207 52.0296 390.004 52.4011C389.849 52.6797 389.898 53.0261 390.123 53.252L391.818 54.9466L390.303 56.4618L388.608 54.7671L388.609 54.7663C388.383 54.5413 388.037 54.4922 387.758 54.6466C387.387 54.8502 386.995 55.0118 386.587 55.1288C386.282 55.2172 386.071 55.4966 386.071 55.8154V58.2145H383.929V55.8154C383.929 55.4966 383.718 55.2171 383.412 55.1288C383.005 55.0118 382.613 54.8502 382.242 54.6466C381.963 54.4921 381.617 54.5413 381.391 54.7663L379.696 56.4618L378.181 54.9466L379.876 53.252H379.877C380.102 53.0261 380.151 52.6796 379.996 52.4011C379.793 52.0296 379.631 51.6377 379.514 51.2305C379.426 50.9252 379.146 50.7145 378.828 50.7145H376.429V48.5716H378.828C379.146 48.5716 379.426 48.3609 379.514 48.0555C379.631 47.6484 379.793 47.2564 379.996 46.885C380.151 46.6064 380.102 46.26 379.877 46.0341L378.181 44.3394L379.696 42.8243L381.391 44.5189V44.5198C381.617 44.7448 381.963 44.7939 382.242 44.6395C382.613 44.4359 383.005 44.2743 383.412 44.1573C383.718 44.0689 383.929 43.7894 383.929 43.4707V41.0716H386.071V43.4707C386.071 43.7894 386.282 44.0689 386.587 44.1573C386.995 44.2743 387.387 44.4359 387.758 44.6395C388.037 44.7939 388.383 44.7448 388.609 44.5198L390.304 42.8252L391.819 44.3403L390.124 46.035L390.123 46.0341C389.898 46.26 389.849 46.6064 390.004 46.885C390.207 47.2564 390.369 47.6484 390.486 48.0555C390.574 48.3609 390.854 48.5716 391.172 48.5716H393.571L393.571 50.7145ZM385 45.1787C383.816 45.1787 382.68 45.6492 381.843 46.4858C381.006 47.3234 380.536 48.4591 380.536 49.6429C380.536 50.8267 381.006 51.9624 381.843 52.7999C382.68 53.6365 383.816 54.1071 385 54.1071C386.184 54.1071 387.32 53.6365 388.157 52.7999C388.994 51.9624 389.464 50.8267 389.464 49.6429C389.463 48.4589 388.992 47.324 388.155 46.4874C387.319 45.6508 386.184 45.1796 385 45.1787ZM385 52.6786C383.772 52.6786 382.665 51.9393 382.195 50.8045C381.726 49.6706 381.985 48.3642 382.853 47.4964C383.721 46.6276 385.028 46.3687 386.162 46.8383C387.296 47.308 388.036 48.4151 388.036 49.6429C388.034 51.3188 386.676 52.6767 385 52.6786Z" fill="#46602C"/>
<circle cx="385" cy="85.643" r="9.25" stroke="#46602C" stroke-width="1.5"/>
<path d="M384.472 89.3012C384.76 89.3013 385.007 89.3937 385.207 89.5795L385.282 89.6508C385.445 89.824 385.528 90.0325 385.528 90.2719C385.528 90.5456 385.419 90.7788 385.207 90.9653C385.007 91.151 384.76 91.2426 384.472 91.2426C384.173 91.2426 383.915 91.1512 383.704 90.9653C383.492 90.7788 383.383 90.5456 383.383 90.2719C383.383 89.9984 383.492 89.766 383.704 89.5795C383.915 89.3935 384.173 89.3012 384.472 89.3012ZM385.477 81.0434C386.545 81.0435 387.419 81.31 388.09 81.852C388.763 82.3965 389.1 83.1282 389.1 84.0366C389.1 85.046 388.743 85.8105 388.021 86.31H388.02C387.326 86.7801 386.401 87.0144 385.253 87.0268L385.209 88.267L385.206 88.3637H383.753L383.75 88.267L383.686 86.0473L383.683 85.9448H384.248C385.293 85.9448 386.1 85.8045 386.677 85.5327C386.957 85.4003 387.165 85.2121 387.303 84.9672C387.441 84.7214 387.513 84.4126 387.513 84.0366C387.513 83.5002 387.331 83.0842 386.974 82.7778C386.614 82.4697 386.124 82.31 385.492 82.31C384.849 82.31 384.353 82.4659 383.993 82.7651C383.647 83.0526 383.472 83.4489 383.472 83.9663V84.0659H381.9V83.9663C381.9 83.3866 382.048 82.8746 382.348 82.435C382.646 81.9874 383.066 81.6436 383.602 81.4028H383.603C384.149 81.1623 384.774 81.0434 385.477 81.0434Z" fill="#46602C" stroke="#46602C" stroke-width="0.2"/>
</svg>
